<svg width="15" height="14" viewBox="0 0 15 14" fill="none" xmlns="http://www.w3.org/2000/svg">
<path d="M6.79297 10.3333H8.1263V7.66665H10.793V6.33331H8.1263V3.66665H6.79297V6.33331H4.1263V7.66665H6.79297V10.3333ZM7.45963 13.6666C6.53741 13.6666 5.67075 13.4915 4.85964 13.1413C4.04852 12.7911 3.34297 12.3162 2.74297 11.7166C2.14297 11.1166 1.66808 10.4111 1.3183 9.59998C0.968524 8.78887 0.793413 7.9222 0.792969 6.99998C0.792969 6.07776 0.96808 5.21109 1.3183 4.39998C1.66852 3.58887 2.14341 2.88331 2.74297 2.28331C3.34297 1.68331 4.04852 1.20842 4.85964 0.858646C5.67075 0.508869 6.53741 0.333757 7.45963 0.333313C8.38186 0.333313 9.24852 0.508424 10.0596 0.858646C10.8707 1.20887 11.5763 1.68376 12.1763 2.28331C12.7763 2.88331 13.2514 3.58887 13.6016 4.39998C13.9519 5.21109 14.1267 6.07776 14.1263 6.99998C14.1263 7.9222 13.9512 8.78887 13.601 9.59998C13.2507 10.4111 12.7759 11.1166 12.1763 11.7166C11.5763 12.3166 10.8707 12.7918 10.0596 13.142C9.24852 13.4922 8.38186 13.6671 7.45963 13.6666Z" fill="white"/>
</svg>
