<svg width="14" height="18" viewBox="0 0 14 18" fill="none" xmlns="http://www.w3.org/2000/svg">
<path d="M7.04557 9.21871C7.50391 9.21871 7.89641 9.05538 8.22307 8.72871C8.54918 8.4026 8.71224 8.01038 8.71224 7.55204C8.71224 7.09371 8.54918 6.70121 8.22307 6.37454C7.89641 6.04843 7.50391 5.88538 7.04557 5.88538C6.58724 5.88538 6.19502 6.04843 5.86891 6.37454C5.54224 6.70121 5.37891 7.09371 5.37891 7.55204C5.37891 8.01038 5.54224 8.4026 5.86891 8.72871C6.19502 9.05538 6.58724 9.21871 7.04557 9.21871ZM7.04557 15.3437C8.74002 13.7882 9.99696 12.3748 10.8164 11.1037C11.6358 9.83315 12.0456 8.70482 12.0456 7.71871C12.0456 6.20482 11.5628 4.9651 10.5972 3.99954C9.63224 3.03454 8.44835 2.55204 7.04557 2.55204C5.6428 2.55204 4.45863 3.03454 3.49307 3.99954C2.52807 4.9651 2.04557 6.20482 2.04557 7.71871C2.04557 8.70482 2.4553 9.83315 3.27474 11.1037C4.09418 12.3748 5.35113 13.7882 7.04557 15.3437ZM7.04557 17.2395C6.93446 17.2395 6.82335 17.2187 6.71224 17.177C6.60113 17.1354 6.50391 17.0798 6.42057 17.0104C4.3928 15.2187 2.87891 13.5557 1.87891 12.0212C0.878906 10.4862 0.378906 9.05204 0.378906 7.71871C0.378906 5.63538 1.04918 3.97565 2.38974 2.73954C3.72974 1.50343 5.28168 0.885376 7.04557 0.885376C8.80946 0.885376 10.3614 1.50343 11.7014 2.73954C13.042 3.97565 13.7122 5.63538 13.7122 7.71871C13.7122 9.05204 13.2122 10.4862 12.2122 12.0212C11.2122 13.5557 9.69835 15.2187 7.67057 17.0104C7.58724 17.0798 7.49002 17.1354 7.37891 17.177C7.26779 17.2187 7.15668 17.2395 7.04557 17.2395Z" fill="#383838"/>
</svg>
