<svg width="15" height="17" viewBox="0 0 15 17" fill="none" xmlns="http://www.w3.org/2000/svg">
<path d="M10.5572 0.939455C10.8969 0.938657 11.1654 1.20252 11.1662 1.55435L11.167 2.15405C13.3707 2.32676 14.8264 3.82841 14.8288 6.13125L14.8375 12.8719C14.8406 15.3826 13.2633 16.9274 10.7349 16.9314L4.55901 16.9394C2.04646 16.9426 0.449359 15.361 0.446199 12.8431L0.437505 6.18163C0.434351 3.86359 1.83873 2.36594 4.04244 2.16364L4.04165 1.56394C4.04086 1.21212 4.30152 0.947453 4.64906 0.947453C4.99659 0.946653 5.25725 1.21052 5.25804 1.56234L5.25883 2.12206L9.95061 2.11567L9.94982 1.55595C9.94903 1.20412 10.2097 0.940256 10.5572 0.939455ZM10.8795 12.293H10.8716C10.5083 12.3018 10.2168 12.6064 10.2247 12.9742C10.2255 13.342 10.5185 13.6451 10.8819 13.6531C11.2523 13.6523 11.5524 13.3476 11.5517 12.9718C11.5517 12.596 11.2507 12.293 10.8795 12.293ZM4.37102 12.2938C4.00769 12.3098 3.72334 12.6144 3.72412 12.9822C3.74071 13.35 4.04086 13.6379 4.4042 13.6211C4.76043 13.6051 5.04399 13.3005 5.0274 12.9326C5.0195 12.5728 4.72646 12.293 4.37102 12.2938ZM7.62525 12.2898C7.26192 12.3066 6.97836 12.6104 6.97836 12.9782C6.99495 13.346 7.29509 13.6331 7.65843 13.6171C8.01387 13.6003 8.29822 13.2965 8.28163 12.9278C8.27373 12.5688 7.98069 12.289 7.62525 12.2898ZM4.36707 9.41521C4.00374 9.4312 3.72018 9.73585 3.72097 10.1037C3.73676 10.4715 4.0377 10.7593 4.40104 10.7425C4.75648 10.7266 5.04004 10.4219 5.02345 10.0541C5.01555 9.69427 4.7233 9.41441 4.36707 9.41521ZM7.6221 9.38722C7.25876 9.40321 6.97441 9.70786 6.9752 10.0757C6.991 10.4435 7.29193 10.7305 7.65527 10.7146C8.01071 10.6978 8.29427 10.3939 8.27847 10.0261C8.26978 9.66628 7.97753 9.38642 7.6221 9.38722ZM10.8763 9.39122C10.513 9.39922 10.2286 9.69507 10.2294 10.0629V10.0717C10.2373 10.4395 10.5375 10.7186 10.9016 10.7106C11.257 10.7018 11.5406 10.3971 11.5327 10.0293C11.5161 9.67748 11.231 9.39042 10.8763 9.39122ZM9.95219 3.34705L5.26041 3.35345L5.2612 4.00032C5.2612 4.34495 5.00133 4.61681 4.65379 4.61681C4.30625 4.61761 4.04481 4.34655 4.04481 4.00192L4.04402 3.38623C2.50379 3.54055 1.65153 4.4457 1.65389 6.18003L1.65469 6.42871L13.6132 6.41271V6.13285C13.5792 4.41372 12.7167 3.51177 11.1686 3.37743L11.1694 3.99313C11.1694 4.33695 10.9016 4.60962 10.562 4.60962C10.2144 4.61042 9.95298 4.33855 9.95298 3.99473L9.95219 3.34705Z" fill="black"/>
</svg>
