<svg width="19" height="21" viewBox="0 0 19 21" fill="none" xmlns="http://www.w3.org/2000/svg">
<path d="M15.3146 15.407C15.3142 14.6657 14.7186 14.0591 13.9744 14.0591H13.9645V14.0589L13.9524 14.0592C13.2225 14.0769 12.6428 14.6851 12.6559 15.4165C12.66 16.1395 13.2364 16.743 13.9663 16.7591L13.9663 16.7593L13.9784 16.7592C14.7231 16.7576 15.3159 16.147 15.3146 15.407ZM15.3146 15.407C15.3146 15.4072 15.3146 15.4074 15.3146 15.4077H14.8146L15.3146 15.4066C15.3146 15.4067 15.3146 15.4069 15.3146 15.407ZM5.90267 16.7187C6.62239 16.6864 7.18892 16.0746 7.15899 15.3419C7.14004 14.6187 6.54832 14.0585 5.83766 14.0601L5.82722 14.0601L5.81679 14.0606C5.08655 14.0927 4.52862 14.7024 4.53016 15.4217L4.53018 15.4325L4.53066 15.4432C4.56309 16.1621 5.15632 16.7529 5.90267 16.7187ZM5.90267 16.7187L5.88025 16.2192M5.90267 16.7187C5.90289 16.7187 5.90311 16.7187 5.90333 16.7187L5.88025 16.2192M5.88025 16.2192C5.42608 16.2402 5.05089 15.8804 5.03016 15.4206L5.83878 14.5601C6.28308 14.5591 6.64937 14.9089 6.65925 15.3587C6.67998 15.8184 6.32553 16.1993 5.88025 16.2192ZM5.82228 10.4619L5.83272 10.4619C6.54476 10.4603 7.13512 11.0209 7.15405 11.7437C7.18396 12.4758 6.61817 13.0878 5.89938 13.1205L5.82228 10.4619ZM5.82228 10.4619L5.81185 10.4624M5.82228 10.4619L5.81185 10.4624M5.81185 10.4624C5.08084 10.4945 4.52467 11.1049 4.52621 11.8235L4.52623 11.8337M5.81185 10.4624L4.52623 11.8337M4.52623 11.8337L4.52667 11.8439M4.52623 11.8337L4.52667 11.8439M4.52667 11.8439C4.55763 12.5648 5.15358 13.1549 5.89925 13.1205L4.52667 11.8439ZM13.5727 0.867188L13.5727 0.867188C13.7182 0.866847 13.8323 0.970374 13.8328 1.13666C13.8328 1.13675 13.8328 1.13684 13.8328 1.13693L13.8337 1.88609L13.8344 2.34783L14.2947 2.3839C15.5663 2.48357 16.5867 2.96223 17.2889 3.71398C17.9903 4.46494 18.4096 5.52628 18.411 6.85745V6.85758L18.4219 15.2834C18.4237 16.7459 17.9675 17.8751 17.1932 18.6391C16.418 19.404 15.271 19.8548 13.7929 19.8572L6.07311 19.8672C4.60921 19.869 3.46096 19.4112 2.67954 18.6342C1.89832 17.8573 1.43459 16.7126 1.43275 15.2461L1.43275 15.2461L1.42188 6.91926L1.42188 6.91923C1.42005 5.57362 1.82499 4.50802 2.51063 3.75307C3.1964 2.99798 4.20059 2.51221 5.47376 2.39533L5.92865 2.35357L5.92805 1.89677L5.92706 1.14714L5.92706 1.14668C5.92668 0.977451 6.03446 0.877187 6.18632 0.877188L6.18747 0.877186C6.33862 0.876838 6.44704 0.976092 6.44755 1.14662C6.44755 1.14672 6.44755 1.14682 6.44755 1.14692L6.44854 1.84616L6.44924 2.34613L6.94922 2.34545L12.8139 2.33745L13.314 2.33677L13.3133 1.83675L13.3123 1.1371L13.3123 1.13668C13.3119 0.968534 13.4189 0.867543 13.5727 0.867188ZM6.18632 0.377187C6.62074 0.376188 6.94656 0.706022 6.94755 1.1458L5.42706 1.1478C5.42608 0.708021 5.75189 0.377187 6.18632 0.377187ZM9.90545 14.0551L9.89446 14.0551L9.88348 14.0556C9.15413 14.0893 8.59795 14.6971 8.59795 15.4156V15.4269L8.59845 15.4382C8.63093 16.1584 9.22519 16.7465 9.97002 16.7138L9.97163 16.7137C10.6884 16.6798 11.2568 16.0706 11.2268 15.3359C11.2078 14.6133 10.6157 14.0535 9.90545 14.0551ZM9.9015 10.4269L9.89106 10.4269L9.88063 10.4274C9.15039 10.4595 8.59245 11.0692 8.594 11.7885L8.59402 11.7987L8.59446 11.8089C8.62547 12.5309 9.22218 13.1183 9.96607 13.0856L9.96768 13.0855C10.6854 13.0516 11.2518 12.4415 11.2228 11.7087C11.2029 10.9868 10.6135 10.4253 9.9015 10.4269ZM13.9693 10.4319V10.4318L13.1618 11.7715H12.6618V11.7721C12.6618 11.7722 12.6618 11.7724 12.6618 11.7725L12.6618 11.7825H12.6617L12.6619 11.7932C12.6778 12.5358 13.2883 13.0969 14.013 13.081L14.0144 13.0809C14.7475 13.0628 15.3063 12.4404 15.2908 11.7188L15.2909 11.7188L15.2903 11.706C15.2577 11.0138 14.6946 10.4303 13.9693 10.4319ZM13.3152 3.37607L13.3146 2.876L12.8146 2.87668L6.94983 2.88468L6.4499 2.88536L6.45051 3.38529L6.4515 4.19327C6.4515 4.19334 6.4515 4.1934 6.4515 4.19346C6.45142 4.35938 6.33922 4.46389 6.19224 4.46389L6.19109 4.46389C6.04264 4.46423 5.93101 4.35894 5.93101 4.19527L5.93101 4.19463L5.93003 3.42502L5.92932 2.87313L5.38018 2.92815C4.3309 3.03328 3.45014 3.40221 2.83711 4.10157C2.22611 4.79861 1.94078 5.75589 1.94237 6.91859L1.94237 6.91951L1.94336 7.23035L1.94496 7.72942L2.44403 7.72875L17.3922 7.70876L17.8915 7.7081V7.20876V6.85894H17.8916L17.8914 6.84906C17.8686 5.69587 17.566 4.74619 16.9442 4.05857C16.3202 3.36844 15.4343 3.00811 14.3789 2.91654L13.835 2.86934L13.8357 3.41531L13.8367 4.18428C13.8367 4.18442 13.8367 4.18456 13.8367 4.18471C13.8365 4.34562 13.7183 4.45489 13.5775 4.45489L13.5763 4.45489C13.4283 4.45524 13.3162 4.34938 13.3162 4.18628V4.18567L13.3152 3.37607Z" stroke="#FCBC10"/>
</svg>
