<svg width="18" height="12" viewBox="0 0 18 12" fill="none" xmlns="http://www.w3.org/2000/svg">
<path fill-rule="evenodd" clip-rule="evenodd" d="M12.4804 1.09091H17.3571L18 1.63636V11.4545L17.3571 12H0.642857L0 11.4545V1.63636L0.642857 1.09091H5.51957L6.61629 0.159273L7.07143 0H10.9286L11.3837 0.159273L12.4804 1.09091ZM1.28571 10.9091H16.7143V2.18182H12.2143L11.7591 2.02255L10.6624 1.09091H7.33757L6.24086 2.02255L5.78571 2.18182H1.28571V10.9091ZM3.21429 3.27273C3.04379 3.27273 2.88028 3.33019 2.75972 3.43249C2.63916 3.53478 2.57143 3.67352 2.57143 3.81818C2.57143 3.96285 2.63916 4.10158 2.75972 4.20388C2.88028 4.30617 3.04379 4.36364 3.21429 4.36364C3.38478 4.36364 3.5483 4.30617 3.66885 4.20388C3.78941 4.10158 3.85714 3.96285 3.85714 3.81818C3.85714 3.67352 3.78941 3.53478 3.66885 3.43249C3.5483 3.33019 3.38478 3.27273 3.21429 3.27273ZM9 4.36364C9.68198 4.36364 10.336 4.59351 10.8183 5.00268C11.3005 5.41185 11.5714 5.9668 11.5714 6.54545C11.5714 7.12411 11.3005 7.67906 10.8183 8.08823C10.336 8.4974 9.68198 8.72727 9 8.72727C8.31801 8.72727 7.66396 8.4974 7.18173 8.08823C6.69949 7.67906 6.42857 7.12411 6.42857 6.54545C6.42857 5.9668 6.69949 5.41185 7.18173 5.00268C7.66396 4.59351 8.31801 4.36364 9 4.36364ZM9 3.27273C7.97702 3.27273 6.99594 3.61753 6.27259 4.23129C5.54923 4.84504 5.14286 5.67747 5.14286 6.54545C5.14286 7.41344 5.54923 8.24587 6.27259 8.85962C6.99594 9.47338 7.97702 9.81818 9 9.81818C10.023 9.81818 11.0041 9.47338 11.7274 8.85962C12.4508 8.24587 12.8571 7.41344 12.8571 6.54545C12.8571 5.67747 12.4508 4.84504 11.7274 4.23129C11.0041 3.61753 10.023 3.27273 9 3.27273Z" fill="#FCBC10"/>
</svg>
