<svg width="17" height="16" viewBox="0 0 17 16" fill="none" xmlns="http://www.w3.org/2000/svg">
<path d="M12.4044 4.04724C12.0023 4.04724 11.6331 3.8165 11.4485 3.46049L10.9738 2.50455C10.6705 1.90461 9.8794 1.41016 9.20694 1.41016H7.69721C7.01816 1.41016 6.22704 1.90461 5.92377 2.50455L5.4491 3.46049C5.2645 3.8165 4.89531 4.04724 4.49315 4.04724C3.06253 4.04724 1.92859 5.25371 2.02089 6.67773L2.36371 12.1233C2.44282 13.4814 3.17461 14.5956 4.9942 14.5956H11.9034C13.723 14.5956 14.4481 13.4814 14.5339 12.1233L14.8767 6.67773C14.969 5.25371 13.835 4.04724 12.4044 4.04724ZM7.45987 4.87133H9.43769C9.70799 4.87133 9.93214 5.09548 9.93214 5.36578C9.93214 5.63609 9.70799 5.86024 9.43769 5.86024H7.45987C7.18957 5.86024 6.96542 5.63609 6.96542 5.36578C6.96542 5.09548 7.18957 4.87133 7.45987 4.87133ZM8.44878 12.0376C7.22254 12.0376 6.22044 11.0421 6.22044 9.80927C6.22044 8.57643 7.21594 7.58094 8.44878 7.58094C9.68162 7.58094 10.6771 8.57643 10.6771 9.80927C10.6771 11.0421 9.67503 12.0376 8.44878 12.0376Z" fill="white"/>
</svg>
