<svg width="17" height="17" viewBox="0 0 17 17" fill="none" xmlns="http://www.w3.org/2000/svg">
<path fill-rule="evenodd" clip-rule="evenodd" d="M15.1042 9.56193C15.1042 9.57646 15.1042 9.59113 15.1042 9.6058V10.9391C15.1042 10.9538 15.1042 10.9685 15.1042 10.983C15.1042 11.574 15.1042 12.0832 15.0494 12.491C14.9906 12.928 14.8582 13.3469 14.5184 13.6867C14.1786 14.0265 13.7597 14.1589 13.3227 14.2177C12.9149 14.2725 12.4057 14.2725 11.8147 14.2725H7.72698C7.13598 14.2725 6.62675 14.2725 6.21898 14.2177C5.78197 14.1589 5.36307 14.0265 5.02329 13.6867C4.68352 13.3469 4.55102 12.928 4.49227 12.491C4.43744 12.0832 4.43747 11.574 4.4375 10.983V9.56193C4.43747 8.97093 4.43744 8.46173 4.49227 8.05393C4.55102 7.61693 4.68352 7.19803 5.02329 6.85825C5.36307 6.51848 5.78197 6.38598 6.21898 6.32722C6.62675 6.2724 7.13598 6.27243 7.72698 6.27246H11.7708C11.7855 6.27246 11.8002 6.27246 11.8147 6.27246C12.4057 6.27243 12.9149 6.2724 13.3227 6.32723C13.7597 6.38598 14.1786 6.51848 14.5184 6.85825C14.8582 7.19803 14.9906 7.61693 15.0494 8.05393C15.1042 8.46173 15.1042 8.97093 15.1042 9.56193ZM7.77084 10.2725C7.77084 9.16786 8.66631 8.27246 9.77084 8.27246C10.8754 8.27246 11.7708 9.16786 11.7708 10.2725C11.7708 11.3771 10.8754 12.2725 9.77084 12.2725C8.66631 12.2725 7.77084 11.3771 7.77084 10.2725Z" fill="black"/>
<path d="M12.4378 5.60913C12.247 5.60649 12.0508 5.60651 11.8527 5.60653H7.69431C7.13184 5.60647 6.58522 5.60641 6.13281 5.66724C5.62231 5.73587 5.03905 5.90309 4.55455 6.38758C4.07006 6.87207 3.90285 7.45535 3.83421 7.96586C3.77339 8.41826 3.77344 8.96486 3.7735 9.52739V11.019C3.77348 11.2144 3.77346 11.4079 3.77599 11.5961C3.73282 11.594 3.69107 11.5915 3.65079 11.5883C3.40198 11.5691 3.154 11.5268 2.9131 11.412C2.49898 11.2147 2.16529 10.881 1.96795 10.4669C1.85315 10.2259 1.81083 9.97799 1.79163 9.72919C1.77343 9.49326 1.77343 9.20726 1.77345 8.87579L1.77344 6.89596C1.77341 6.30498 1.77338 5.79576 1.82821 5.38799C1.88696 4.95098 2.01945 4.53208 2.35923 4.1923C2.69901 3.85253 3.11791 3.72003 3.55491 3.66128C3.96269 3.60645 4.4719 3.60648 5.06289 3.60651L10.1328 3.60648C10.414 3.60623 10.6562 3.60602 10.8718 3.65365C11.6316 3.82161 12.225 4.41503 12.393 5.17485C12.4225 5.30837 12.4336 5.45217 12.4378 5.60913Z" fill="black"/>
</svg>
