<svg width="21" height="21" viewBox="0 0 21 21" fill="none" xmlns="http://www.w3.org/2000/svg">
<path d="M18.1694 16.0881L18.1695 16.088C18.4856 15.7719 18.6252 15.3716 18.6913 14.8804L18.1694 16.0881ZM18.1694 16.0881C17.8533 16.4042 17.453 16.5438 16.9618 16.6099L18.1694 16.0881ZM15.1434 16.6738H15.1434C15.8941 16.6739 16.4925 16.6729 16.9617 16.6099L15.1434 16.6738ZM15.1434 16.6738H10.0337H10.0337M15.1434 16.6738H10.0337M10.0337 16.6738C9.28296 16.6739 8.68454 16.6729 8.21539 16.6099C7.72419 16.5438 7.32385 16.4042 7.00767 16.088L7.00764 16.088M10.0337 16.6738L7.00764 16.088M7.00764 16.088C6.69149 15.7719 6.55191 15.3715 6.48588 14.8804C6.4228 14.4112 6.42183 13.8128 6.42188 13.062V13.062M7.00764 16.088L6.42188 13.062M6.42188 13.062V11.2857V11.2856M6.42188 13.062V11.2856M6.42188 11.2856C6.42183 10.5348 6.4228 9.93646 6.48588 9.46729C6.55191 8.97616 6.69148 8.57581 7.00766 8.25962M6.42188 11.2856L7.00766 8.25962M10.0337 7.67383H10.0337C9.28289 7.67379 8.68448 7.67475 8.21534 7.73782M10.0337 7.67383L6.65411 7.90606L7.00766 8.25962M10.0337 7.67383H15.0886H15.0887H15.0888H15.0889H15.089H15.0891H15.0892H15.0893H15.0894H15.0895H15.0896H15.0897H15.0898H15.0899H15.0901H15.0902H15.0903H15.0904H15.0905H15.0906H15.0907H15.0908H15.0909H15.091H15.0911H15.0912H15.0913H15.0915H15.0916H15.0917H15.0918H15.0919H15.092H15.0921H15.0922H15.0923H15.0924H15.0925H15.0926H15.0927H15.0928H15.093H15.0931H15.0932H15.0933H15.0934H15.0935H15.0936H15.0937H15.0938H15.0939H15.094H15.0941H15.0942H15.0944H15.0945H15.0946H15.0947H15.0948H15.0949H15.095H15.0951H15.0952H15.0953H15.0954H15.0955H15.0956H15.0957H15.0959H15.096H15.0961H15.0962H15.0963H15.0964H15.0965H15.0966H15.0967H15.0968H15.0969H15.097H15.0971H15.0973H15.0974H15.0975H15.0976H15.0977H15.0978H15.0979H15.098H15.0981H15.0982H15.0983H15.0984H15.0985H15.0986H15.0988H15.0989H15.099H15.0991H15.0992H15.0993H15.0994H15.0995H15.0996H15.0997H15.0998H15.0999H15.1H15.1002H15.1003H15.1004H15.1005H15.1006H15.1007H15.1008H15.1009H15.101H15.1011H15.1012H15.1013H15.1014H15.1015H15.1017H15.1018H15.1019H15.102H15.1021H15.1022H15.1023H15.1024H15.1025H15.1026H15.1027H15.1028H15.1029H15.1031H15.1032H15.1033H15.1034H15.1035H15.1036H15.1037H15.1038H15.1039H15.104H15.1041H15.1042H15.1043H15.1044H15.1046H15.1047H15.1048H15.1049H15.105H15.1051H15.1052H15.1053H15.1054H15.1055H15.1056H15.1057H15.1058H15.1059H15.1061H15.1062H15.1063H15.1064H15.1065H15.1066H15.1067H15.1068H15.1069H15.107H15.1071H15.1072H15.1073H15.1075H15.1076H15.1077H15.1078H15.1079H15.108H15.1081H15.1082H15.1083H15.1084H15.1085H15.1086H15.1087H15.1088H15.109H15.1091H15.1092H15.1093H15.1094H15.1095H15.1096H15.1097H15.1098H15.1099H15.11H15.1101H15.1102H15.1103H15.1105H15.1106H15.1107H15.1108H15.1109H15.111H15.1111H15.1112H15.1113H15.1114H15.1115H15.1116H15.1117H15.1118H15.112H15.1121H15.1122H15.1123H15.1124H15.1125H15.1126H15.1127H15.1128H15.1129H15.113H15.1131H15.1132H15.1134H15.1135H15.1136H15.1137H15.1138H15.1139H15.114H15.1141H15.1142H15.1143H15.1144H15.1145H15.1146H15.1147H15.1149H15.115H15.1151H15.1152H15.1153H15.1154H15.1155H15.1156H15.1157H15.1158H15.1159H15.116H15.1161H15.1162H15.1164H15.1165H15.1166H15.1167H15.1168H15.1169H15.117H15.1171H15.1172H15.1173H15.1174H15.1175H15.1176H15.1177H15.1179H15.118H15.1181H15.1182H15.1183H15.1184H15.1185H15.1186H15.1187H15.1188H15.1189H15.119H15.1191H15.1192H15.1194H15.1195H15.1196H15.1197H15.1198H15.1199H15.12H15.1201H15.1202H15.1203H15.1204H15.1205H15.1206H15.1207H15.1209H15.121H15.1211H15.1212H15.1213H15.1214H15.1215H15.1216H15.1217H15.1218H15.1219H15.122H15.1221H15.1222H15.1224H15.1225H15.1226H15.1227H15.1228H15.1229H15.123H15.1231H15.1232H15.1233H15.1234H15.1235H15.1236H15.1237H15.1238H15.124H15.1241H15.1242H15.1243H15.1244H15.1245H15.1246H15.1247H15.1248H15.1249H15.125H15.1251H15.1252H15.1253H15.1255H15.1256H15.1257H15.1258H15.1259H15.126H15.1261H15.1262H15.1263H15.1264H15.1265H15.1266H15.1267H15.1268H15.127H15.1271H15.1272H15.1273H15.1274H15.1275H15.1276H15.1277H15.1278H15.1279H15.128H15.1281H15.1282H15.1283H15.1284H15.1286H15.1287H15.1288H15.1289H15.129H15.1291H15.1292H15.1293H15.1294H15.1295H15.1296H15.1297H15.1298H15.1299H15.1301H15.1302H15.1303H15.1304H15.1305H15.1306H15.1307H15.1308H15.1309H15.131H15.1311H15.1312H15.1313H15.1314H15.1315H15.1317H15.1318H15.1319H15.132H15.1321H15.1322H15.1323H15.1324H15.1325H15.1326H15.1327H15.1328H15.1329H15.133H15.1332H15.1333H15.1334H15.1335H15.1336H15.1337H15.1338H15.1339H15.134H15.1341H15.1342H15.1343H15.1344H15.1345H15.1346H15.1348H15.1349H15.135H15.1351H15.1352H15.1353H15.1354H15.1355H15.1356H15.1357H15.1358H15.1359H15.136H15.1361H15.1362H15.1364H15.1365H15.1366H15.1367H15.1368H15.1369H15.137H15.1371H15.1372H15.1373H15.1374H15.1375H15.1376H15.1377H15.1378H15.138H15.1381H15.1382H15.1383H15.1384H15.1385H15.1386H15.1387H15.1388H15.1389H15.139H15.1391H15.1392H15.1393H15.1394H15.1396H15.1397H15.1398H15.1399H15.14H15.1401H15.1402H15.1403H15.1404H15.1405H15.1406H15.1407H15.1408H15.1409H15.141H15.1411H15.1413H15.1414H15.1415H15.1416H15.1417H15.1418H15.1419H15.142H15.1421H15.1422H15.1423H15.1424H15.1425H15.1426H15.1427H15.1429H15.143H15.1431H15.1432H15.1433H15.1434H15.1434M10.0337 7.67383H15.1434M8.21534 7.73782L8.14872 7.24228L8.21534 7.73782ZM8.21534 7.73782C7.72419 7.80386 7.32385 7.94344 7.00767 8.25961C7.00767 8.25962 7.00766 8.25962 7.00766 8.25962M15.1434 7.67383C15.8942 7.67379 16.4926 7.67475 16.9618 7.73783C17.4529 7.80386 17.8533 7.94345 18.1694 8.2596L18.1694 8.25963M15.1434 7.67383L18.1694 8.25963M18.1694 8.25963C18.4856 8.57578 18.6252 8.97609 18.6913 9.46725L18.1694 8.25963ZM18.7552 11.2858V11.2857C18.7552 10.5348 18.7543 9.93652 18.6913 9.46734L18.7552 11.2858ZM18.7552 11.2858V11.2859M18.7552 11.2858V11.2859M18.7552 11.2859V11.286M18.7552 11.2859V11.286M18.7552 11.286V11.2861M18.7552 11.286V11.2861M18.7552 11.2861V11.2862M18.7552 11.2861V11.2862M18.7552 11.2862V11.2863M18.7552 11.2862V11.2863M18.7552 11.2863V11.2864M18.7552 11.2863V11.2864M18.7552 11.2864V11.2865M18.7552 11.2864V11.2865M18.7552 11.2865V11.2866M18.7552 11.2865V11.2866M18.7552 11.2866V11.2867M18.7552 11.2866V11.2867M18.7552 11.2867V11.2868M18.7552 11.2867V11.2868M18.7552 11.2868V11.2869M18.7552 11.2868V11.2869M18.7552 11.2869V11.287M18.7552 11.2869V11.287M18.7552 11.287V11.2872M18.7552 11.287V11.2872M18.7552 11.2872V11.2873M18.7552 11.2872V11.2873M18.7552 11.2873V11.2874M18.7552 11.2873V11.2874M18.7552 11.2874V11.2875M18.7552 11.2874V11.2875M18.7552 11.2875V11.2876M18.7552 11.2875V11.2876M18.7552 11.2876V11.2877M18.7552 11.2876V11.2877M18.7552 11.2877V11.2878M18.7552 11.2877V11.2878M18.7552 11.2878V11.2879M18.7552 11.2878V11.2879M18.7552 11.2879V11.288M18.7552 11.2879V11.288M18.7552 11.288V11.2881M18.7552 11.288V11.2881M18.7552 11.2881V11.2882M18.7552 11.2881V11.2882M18.7552 11.2882V11.2883M18.7552 11.2882V11.2883M18.7552 11.2883V11.2884M18.7552 11.2883V11.2884M18.7552 11.2884V11.2885M18.7552 11.2884V11.2885M18.7552 11.2885V11.2886M18.7552 11.2885V11.2886M18.7552 11.2886V11.2888M18.7552 11.2886V11.2888M18.7552 11.2888V11.2889M18.7552 11.2888V11.2889M18.7552 11.2889V11.289M18.7552 11.2889V11.289M18.7552 11.289V11.2891M18.7552 11.289V11.2891M18.7552 11.2891V11.2892M18.7552 11.2891V11.2892M18.7552 11.2892V11.2893M18.7552 11.2892V11.2893M18.7552 11.2893V11.2894M18.7552 11.2893V11.2894M18.7552 11.2894V11.2895M18.7552 11.2894V11.2895M18.7552 11.2895V11.2896M18.7552 11.2895V11.2896M18.7552 11.2896V11.2897M18.7552 11.2896V11.2897M18.7552 11.2897V11.2898M18.7552 11.2897V11.2898M18.7552 11.2898V11.2899M18.7552 11.2898V11.2899M18.7552 11.2899V11.29M18.7552 11.2899V11.29M18.7552 11.29V11.2901M18.7552 11.29V11.2901M18.7552 11.2901V11.2902M18.7552 11.2901V11.2902M18.7552 11.2902V11.2904M18.7552 11.2902V11.2904M18.7552 11.2904V11.2905M18.7552 11.2904V11.2905M18.7552 11.2905V11.2906M18.7552 11.2905V11.2906M18.7552 11.2906V11.2907M18.7552 11.2906V11.2907M18.7552 11.2907V11.2908M18.7552 11.2907V11.2908M18.7552 11.2908V11.2909M18.7552 11.2908V11.2909M18.7552 11.2909V11.291M18.7552 11.2909V11.291M18.7552 11.291V11.2911M18.7552 11.291V11.2911M18.7552 11.2911V11.2912M18.7552 11.2911V11.2912M18.7552 11.2912V11.2913M18.7552 11.2912V11.2913M18.7552 11.2913V11.2914M18.7552 11.2913V11.2914M18.7552 11.2914V11.2915M18.7552 11.2914V11.2915M18.7552 11.2915V11.2916M18.7552 11.2915V11.2916M18.7552 11.2916V11.2917M18.7552 11.2916V11.2917M18.7552 11.2917V11.2918M18.7552 11.2917V11.2918M18.7552 11.2918V11.292M18.7552 11.2918V11.292M18.7552 11.292V11.2921M18.7552 11.292V11.2921M18.7552 11.2921V11.2922M18.7552 11.2921V11.2922M18.7552 11.2922V11.2923M18.7552 11.2922V11.2923M18.7552 11.2923V11.2924M18.7552 11.2923V11.2924M18.7552 11.2924V11.2925M18.7552 11.2924V11.2925M18.7552 11.2925V11.2926M18.7552 11.2925V11.2926M18.7552 11.2926V11.2927M18.7552 11.2926V11.2927M18.7552 11.2927V11.2928M18.7552 11.2927V11.2928M18.7552 11.2928V11.2929M18.7552 11.2928V11.2929M18.7552 11.2929V11.293M18.7552 11.2929V11.293M18.7552 11.293V11.2931M18.7552 11.293V11.2931M18.7552 11.2931V11.2932M18.7552 11.2931V11.2932M18.7552 11.2932V11.2933M18.7552 11.2932V11.2933M18.7552 11.2933V11.2934M18.7552 11.2933V11.2934M18.7552 11.2934V11.2936M18.7552 11.2934V11.2936M18.7552 11.2936V11.2937M18.7552 11.2936V11.2937M18.7552 11.2937V11.2938M18.7552 11.2937V11.2938M18.7552 11.2938V11.2939M18.7552 11.2938V11.2939M18.7552 11.2939V11.294M18.7552 11.2939V11.294M18.7552 11.294V11.2941M18.7552 11.294V11.2941M18.7552 11.2941V11.2942M18.7552 11.2941V11.2942M18.7552 11.2942V11.2943M18.7552 11.2942V11.2943M18.7552 11.2943V11.2944M18.7552 11.2943V11.2944M18.7552 11.2944V11.2945M18.7552 11.2944V11.2945M18.7552 11.2945V11.2946M18.7552 11.2945V11.2946M18.7552 11.2946V11.2947M18.7552 11.2946V11.2947M18.7552 11.2947V11.2948M18.7552 11.2947V11.2948M18.7552 11.2948V11.2949M18.7552 11.2948V11.2949M18.7552 11.2949V11.295M18.7552 11.2949V11.295M18.7552 11.295V11.2952M18.7552 11.295V11.2952M18.7552 11.2952V11.2953M18.7552 11.2952V11.2953M18.7552 11.2953V11.2954M18.7552 11.2953V11.2954M18.7552 11.2954V11.2955M18.7552 11.2954V11.2955M18.7552 11.2955V11.2956M18.7552 11.2955V11.2956M18.7552 11.2956V11.2957M18.7552 11.2956V11.2957M18.7552 11.2957V11.2958M18.7552 11.2957V11.2958M18.7552 11.2958V11.2959M18.7552 11.2958V11.2959M18.7552 11.2959V11.296M18.7552 11.2959V11.296M18.7552 11.296V11.2961M18.7552 11.296V11.2961M18.7552 11.2961V11.2962M18.7552 11.2961V11.2962M18.7552 11.2962V11.2963M18.7552 11.2962V11.2963M18.7552 11.2963V11.2964M18.7552 11.2963V11.2964M18.7552 11.2964V11.2965M18.7552 11.2964V11.2965M18.7552 11.2965V11.2966M18.7552 11.2965V11.2966M18.7552 11.2966V11.2968M18.7552 11.2966V11.2968M18.7552 11.2968V11.2969M18.7552 11.2968V11.2969M18.7552 11.2969V11.297M18.7552 11.2969V11.297M18.7552 11.297V11.2971M18.7552 11.297V11.2971M18.7552 11.2971V11.2972M18.7552 11.2971V11.2972M18.7552 11.2972V11.2973M18.7552 11.2972V11.2973M18.7552 11.2973V11.2974M18.7552 11.2973V11.2974M18.7552 11.2974V11.2975M18.7552 11.2974V11.2975M18.7552 11.2975V11.2976M18.7552 11.2975V11.2976M18.7552 11.2976V11.2977M18.7552 11.2976V11.2977M18.7552 11.2977V11.2978M18.7552 11.2977V11.2978M18.7552 11.2978V11.2979M18.7552 11.2978V11.2979M18.7552 11.2979V11.298M18.7552 11.2979V11.298M18.7552 11.298V11.2981M18.7552 11.298V11.2981M18.7552 11.2981V11.2982M18.7552 11.2981V11.2982M18.7552 11.2982V11.2984M18.7552 11.2982V11.2984M18.7552 11.2984V11.2985M18.7552 11.2984V11.2985M18.7552 11.2985V11.2986M18.7552 11.2985V11.2986M18.7552 11.2986V11.2987M18.7552 11.2986V11.2987M18.7552 11.2987V11.2988M18.7552 11.2987V11.2988M18.7552 11.2988V11.2989M18.7552 11.2988V11.2989M18.7552 11.2989V11.299M18.7552 11.2989V11.299M18.7552 11.299V11.2991M18.7552 11.299V11.2991M18.7552 11.2991V11.2992M18.7552 11.2991V11.2992M18.7552 11.2992V11.2993M18.7552 11.2992V11.2993M18.7552 11.2993V11.2994M18.7552 11.2993V11.2994M18.7552 11.2994V11.2995M18.7552 11.2994V11.2995M18.7552 11.2995V11.2996M18.7552 11.2995V11.2996M18.7552 11.2996V11.2997M18.7552 11.2996V11.2997M18.7552 11.2997V11.2999M18.7552 11.2997V11.2999M18.7552 11.2999V11.3M18.7552 11.2999V11.3M18.7552 11.3V11.3001M18.7552 11.3V11.3001M18.7552 11.3001V11.3002M18.7552 11.3001V11.3002M18.7552 11.3002V11.3003M18.7552 11.3002V11.3003M18.7552 11.3003V11.3004M18.7552 11.3003V11.3004M18.7552 11.3004V11.3005M18.7552 11.3004V11.3005M18.7552 11.3005V11.3006M18.7552 11.3005V11.3006M18.7552 11.3006V11.3007M18.7552 11.3006V11.3007M18.7552 11.3007V11.3008M18.7552 11.3007V11.3008M18.7552 11.3008V11.3009M18.7552 11.3008V11.3009M18.7552 11.3009V11.301M18.7552 11.3009V11.301M18.7552 11.301V11.3011M18.7552 11.301V11.3011M18.7552 11.3011V11.3012M18.7552 11.3011V11.3012M18.7552 11.3012V11.3013M18.7552 11.3012V11.3013M18.7552 11.3013V11.3015M18.7552 11.3013V11.3015M18.7552 11.3015V11.3016M18.7552 11.3015V11.3016M18.7552 11.3016V11.3017M18.7552 11.3016V11.3017M18.7552 11.3017V11.3018M18.7552 11.3017V11.3018M18.7552 11.3018V11.3019M18.7552 11.3018V11.3019M18.7552 11.3019V11.302M18.7552 11.3019V11.302M18.7552 11.302V11.3021M18.7552 11.302V11.3021M18.7552 11.3021V11.3022M18.7552 11.3021V11.3022M18.7552 11.3022V11.3023M18.7552 11.3022V11.3023M18.7552 11.3023V11.3024M18.7552 11.3023V11.3024M18.7552 11.3024V11.3025M18.7552 11.3024V11.3025M18.7552 11.3025V11.3026M18.7552 11.3025V11.3026M18.7552 11.3026V11.3027M18.7552 11.3026V11.3027M18.7552 11.3027V11.3028M18.7552 11.3027V11.3028M18.7552 11.3028V11.303M18.7552 11.3028V11.303M18.7552 11.303V11.3031M18.7552 11.303V11.3031M18.7552 11.3031V11.3032M18.7552 11.3031V11.3032M18.7552 11.3032V11.3033M18.7552 11.3032V11.3033M18.7552 11.3033V11.3034M18.7552 11.3033V11.3034M18.7552 11.3034V11.3035M18.7552 11.3034V11.3035M18.7552 11.3035V11.3036M18.7552 11.3035V11.3036M18.7552 11.3036V11.3037M18.7552 11.3036V11.3037M18.7552 11.3037V11.3038M18.7552 11.3037V11.3038M18.7552 11.3038V11.3039M18.7552 11.3038V11.3039M18.7552 11.3039V11.304M18.7552 11.3039V11.304M18.7552 11.304V11.3041M18.7552 11.304V11.3041M18.7552 11.3041V11.3042M18.7552 11.3041V11.3042M18.7552 11.3042V11.3043M18.7552 11.3042V11.3043M18.7552 11.3043V11.3045M18.7552 11.3043V11.3045M18.7552 11.3045V11.3046M18.7552 11.3045V11.3046M18.7552 11.3046V11.3047M18.7552 11.3046V11.3047M18.7552 11.3047V11.3048M18.7552 11.3047V11.3048M18.7552 11.3048V11.3049M18.7552 11.3048V11.3049M18.7552 11.3049V11.305M18.7552 11.3049V11.305M18.7552 11.305V11.3051M18.7552 11.305V11.3051M18.7552 11.3051V11.3052M18.7552 11.3051V11.3052M18.7552 11.3052V11.3053M18.7552 11.3052V11.3053M18.7552 11.3053V11.3054M18.7552 11.3053V11.3054M18.7552 11.3054V11.3055M18.7552 11.3054V11.3055M18.7552 11.3055V11.3056M18.7552 11.3055V11.3056M18.7552 11.3056V11.3057M18.7552 11.3056V11.3057M18.7552 11.3057V11.3058M18.7552 11.3057V11.3058M18.7552 11.3058V11.3059M18.7552 11.3058V11.3059M18.7552 11.3059V11.3061M18.7552 11.3059V11.3061M18.7552 11.3061V11.3062M18.7552 11.3061V11.3062M18.7552 11.3062V11.3063M18.7552 11.3062V11.3063M18.7552 11.3063V11.3064M18.7552 11.3063V11.3064M18.7552 11.3064V11.3065M18.7552 11.3064V11.3065M18.7552 11.3065V11.3066M18.7552 11.3065V11.3066M18.7552 11.3066V11.3067M18.7552 11.3066V11.3067M18.7552 11.3067V11.3068M18.7552 11.3067V11.3068M18.7552 11.3068V11.3069M18.7552 11.3068V11.3069M18.7552 11.3069V11.307M18.7552 11.3069V11.307M18.7552 11.307V11.3071M18.7552 11.307V11.3071M18.7552 11.3071V11.3072M18.7552 11.3071V11.3072M18.7552 11.3072V11.3073M18.7552 11.3072V11.3073M18.7552 11.3073V11.3074M18.7552 11.3073V11.3074M18.7552 11.3074V11.3076M18.7552 11.3074V11.3076M18.7552 11.3076V11.3077M18.7552 11.3076V11.3077M18.7552 11.3077V11.3078M18.7552 11.3077V11.3078M18.7552 11.3078V11.3079M18.7552 11.3078V11.3079M18.7552 11.3079V11.308M18.7552 11.3079V11.308M18.7552 11.308V11.3081M18.7552 11.308V11.3081M18.7552 11.3081V11.3082M18.7552 11.3081V11.3082M18.7552 11.3082V11.3083M18.7552 11.3082V11.3083M18.7552 11.3083V11.3084M18.7552 11.3083V11.3084M18.7552 11.3084V11.3085M18.7552 11.3084V11.3085M18.7552 11.3085V11.3086M18.7552 11.3085V11.3086M18.7552 11.3086V11.3087M18.7552 11.3086V11.3087M18.7552 11.3087V11.3088M18.7552 11.3087V11.3088M18.7552 11.3088V11.3089M18.7552 11.3088V11.3089M18.7552 11.3089V11.3091M18.7552 11.3089V11.3091M18.7552 11.3091V11.3092M18.7552 11.3091V11.3092M18.7552 11.3092V11.3093M18.7552 11.3092V11.3093M18.7552 11.3093V11.3094M18.7552 11.3093V11.3094M18.7552 11.3094V11.3095M18.7552 11.3094V11.3095M18.7552 11.3095V11.3096M18.7552 11.3095V11.3096M18.7552 11.3096V11.3097M18.7552 11.3096V11.3097M18.7552 11.3097V11.3098M18.7552 11.3097V11.3098M18.7552 11.3098V11.3099M18.7552 11.3098V11.3099M18.7552 11.3099V11.31M18.7552 11.3099V11.31M18.7552 11.31V11.3101M18.7552 11.31V11.3101M18.7552 11.3101V11.3102M18.7552 11.3101V11.3102M18.7552 11.3102V11.3103M18.7552 11.3102V11.3103M18.7552 11.3103V11.3104M18.7552 11.3103V11.3104M18.7552 11.3104V11.3106M18.7552 11.3104V11.3106M18.7552 11.3106V11.3107M18.7552 11.3106V11.3107M18.7552 11.3107V11.3108M18.7552 11.3107V11.3108M18.7552 11.3108V11.3109M18.7552 11.3108V11.3109M18.7552 11.3109V11.311M18.7552 11.3109V11.311M18.7552 11.311V11.3111M18.7552 11.311V11.3111M18.7552 11.3111V11.3112M18.7552 11.3111V11.3112M18.7552 11.3112V11.3113M18.7552 11.3112V11.3113M18.7552 11.3113V11.3114M18.7552 11.3113V11.3114M18.7552 11.3114V11.3115M18.7552 11.3114V11.3115M18.7552 11.3115V11.3116M18.7552 11.3115V11.3116M18.7552 11.3116V11.3117M18.7552 11.3116V11.3117M18.7552 11.3117V11.3118M18.7552 11.3117V11.3118M18.7552 11.3118V11.3119M18.7552 11.3118V11.3119M18.7552 11.3119V11.3121M18.7552 11.3119V11.3121M18.7552 11.3121V11.3122M18.7552 11.3121V11.3122M18.7552 11.3122V11.3123M18.7552 11.3122V11.3123M18.7552 11.3123V11.3124M18.7552 11.3123V11.3124M18.7552 11.3124V11.3125M18.7552 11.3124V11.3125M18.7552 11.3125V11.3126M18.7552 11.3125V11.3126M18.7552 11.3126V11.3127M18.7552 11.3126V11.3127M18.7552 11.3127V11.3128M18.7552 11.3127V11.3128M18.7552 11.3128V11.3129M18.7552 11.3128V11.3129M18.7552 11.3129V11.313M18.7552 11.3129V11.313M18.7552 11.313V11.3131M18.7552 11.313V11.3131M18.7552 11.3131V11.3132M18.7552 11.3131V11.3132M18.7552 11.3132V11.3133M18.7552 11.3132V11.3133M18.7552 11.3133V11.3134M18.7552 11.3133V11.3134M18.7552 11.3134V11.3136M18.7552 11.3134V11.3136M18.7552 11.3136V11.3137M18.7552 11.3136V11.3137M18.7552 11.3137V11.3138M18.7552 11.3137V11.3138M18.7552 11.3138V11.3139M18.7552 11.3138V11.3139M18.7552 11.3139V11.314M18.7552 11.3139V11.314M18.7552 11.314V11.3141M18.7552 11.314V11.3141M18.7552 11.3141V11.3142M18.7552 11.3141V11.3142M18.7552 11.3142V11.3143M18.7552 11.3142V11.3143M18.7552 11.3143V11.3144M18.7552 11.3143V11.3144M18.7552 11.3144V11.3145M18.7552 11.3144V11.3145M18.7552 11.3145V11.3146M18.7552 11.3145V11.3146M18.7552 11.3146V11.3147M18.7552 11.3146V11.3147M18.7552 11.3147V11.3148M18.7552 11.3147V11.3148M18.7552 11.3148V11.3149M18.7552 11.3148V11.3149M18.7552 11.3149V11.3151M18.7552 11.3149V11.3151M18.7552 11.3151V11.3152M18.7552 11.3151V11.3152M18.7552 11.3152V11.3153M18.7552 11.3152V11.3153M18.7552 11.3153V11.3154M18.7552 11.3153V11.3154M18.7552 11.3154V11.3155M18.7552 11.3154V11.3155M18.7552 11.3155V11.3156M18.7552 11.3155V11.3156M18.7552 11.3156V11.3157M18.7552 11.3156V11.3157M18.7552 11.3157V11.3158M18.7552 11.3157V11.3158M18.7552 11.3158V11.3159M18.7552 11.3158V11.3159M18.7552 11.3159V11.316M18.7552 11.3159V11.316M18.7552 11.316V11.3161M18.7552 11.316V11.3161M18.7552 11.3161V11.3162M18.7552 11.3161V11.3162M18.7552 11.3162V11.3163M18.7552 11.3162V11.3163M18.7552 11.3163V11.3164M18.7552 11.3163V11.3164M18.7552 11.3164V11.3166M18.7552 11.3164V11.3166M18.7552 11.3166V11.3167M18.7552 11.3166V11.3167M18.7552 11.3167V11.3168M18.7552 11.3167V11.3168M18.7552 11.3168V11.3169M18.7552 11.3168V11.3169M18.7552 11.3169V11.317M18.7552 11.3169V11.317M18.7552 11.317V11.3171M18.7552 11.317V11.3171M18.7552 11.3171V11.3172M18.7552 11.3171V11.3172M18.7552 11.3172V11.3173M18.7552 11.3172V11.3173M18.7552 11.3173V11.3174M18.7552 11.3173V11.3174M18.7552 11.3174V11.3175M18.7552 11.3174V11.3175M18.7552 11.3175V11.3176M18.7552 11.3175V11.3176M18.7552 11.3176V11.3177M18.7552 11.3176V11.3177M18.7552 11.3177V11.3178M18.7552 11.3177V11.3178M18.7552 11.3178V11.3179M18.7552 11.3178V11.3179M18.7552 11.3179V11.3181M18.7552 11.3179V11.3181M18.7552 11.3181V11.3182M18.7552 11.3181V11.3182M18.7552 11.3182V11.3183M18.7552 11.3182V11.3183M18.7552 11.3183V11.3184M18.7552 11.3183V11.3184M18.7552 11.3184V11.3185M18.7552 11.3184V11.3185M18.7552 11.3185V11.3186M18.7552 11.3185V11.3186M18.7552 11.3186V11.3187M18.7552 11.3186V11.3187M18.7552 11.3187V11.3188M18.7552 11.3187V11.3188M18.7552 11.3188V11.3189M18.7552 11.3188V11.3189M18.7552 11.3189V11.319M18.7552 11.3189V11.319M18.7552 11.319V11.3191M18.7552 11.319V11.3191M18.7552 11.3191V11.3192M18.7552 11.3191V11.3192M18.7552 11.3192V11.3193M18.7552 11.3192V11.3193M18.7552 11.3193V11.3195M18.7552 11.3193V11.3195M18.7552 11.3195V11.3196M18.7552 11.3195V11.3196M18.7552 11.3196V11.3197M18.7552 11.3196V11.3197M18.7552 11.3197V11.3198M18.7552 11.3197V11.3198M18.7552 11.3198V11.3199M18.7552 11.3198V11.3199M18.7552 11.3199V11.32M18.7552 11.3199V11.32M18.7552 11.32V11.3201M18.7552 11.32V11.3201M18.7552 11.3201V11.3202M18.7552 11.3201V11.3202M18.7552 11.3202V11.3203M18.7552 11.3202V11.3203M18.7552 11.3203V11.3204M18.7552 11.3203V11.3204M18.7552 11.3204V11.3205M18.7552 11.3204V11.3205M18.7552 11.3205V11.3206M18.7552 11.3205V11.3206M18.7552 11.3206V11.3207M18.7552 11.3206V11.3207M18.7552 11.3207V11.3208M18.7552 11.3207V11.3208M18.7552 11.3208V11.321M18.7552 11.3208V11.321M18.7552 11.321V11.3211M18.7552 11.321V11.3211M18.7552 11.3211V11.3212M18.7552 11.3211V11.3212M18.7552 11.3212V11.3213M18.7552 11.3212V11.3213M18.7552 11.3213V11.3214M18.7552 11.3213V11.3214M18.7552 11.3214V11.3215M18.7552 11.3214V11.3215M18.7552 11.3215V11.3216M18.7552 11.3215V11.3216M18.7552 11.3216V11.3217M18.7552 11.3216V11.3217M18.7552 11.3217V11.3218M18.7552 11.3217V11.3218M18.7552 11.3218V11.3219M18.7552 11.3218V11.3219M18.7552 11.3219V11.322M18.7552 11.3219V11.322M18.7552 11.322V11.3221M18.7552 11.322V11.3221M18.7552 11.3221V11.3222M18.7552 11.3221V11.3222M18.7552 11.3222V11.3223M18.7552 11.3222V11.3223M18.7552 11.3223V11.3225M18.7552 11.3223V11.3225M18.7552 11.3225V11.3226M18.7552 11.3225V11.3226M18.7552 11.3226V11.3227M18.7552 11.3226V11.3227M18.7552 11.3227V11.3228M18.7552 11.3227V11.3228M18.7552 11.3228V11.3229M18.7552 11.3228V11.3229M18.7552 11.3229V11.323M18.7552 11.3229V11.323M18.7552 11.323V11.3231M18.7552 11.323V11.3231M18.7552 11.3231V11.3232M18.7552 11.3231V11.3232M18.7552 11.3232V11.3233M18.7552 11.3232V11.3233M18.7552 11.3233V11.3234M18.7552 11.3233V11.3234M18.7552 11.3234V11.3235M18.7552 11.3234V11.3235M18.7552 11.3235V11.3236M18.7552 11.3235V11.3236M18.7552 11.3236V11.3237M18.7552 11.3236V11.3237M18.7552 11.3237V11.3239M18.7552 11.3237V11.3239M18.7552 11.3239V11.324M18.7552 11.3239V11.324M18.7552 11.324V11.3241M18.7552 11.324V11.3241M18.7552 11.3241V11.3242M18.7552 11.3241V11.3242M18.7552 11.3242V11.3243M18.7552 11.3242V11.3243M18.7552 11.3243V11.3244M18.7552 11.3243V11.3244M18.7552 11.3244V11.3245M18.7552 11.3244V11.3245M18.7552 11.3245V11.3246M18.7552 11.3245V11.3246M18.7552 11.3246V11.3247M18.7552 11.3246V11.3247M18.7552 11.3247V11.3248M18.7552 11.3247V11.3248M18.7552 11.3248V11.3249M18.7552 11.3248V11.3249M18.7552 11.3249V11.325M18.7552 11.3249V11.325M18.7552 11.325V11.3251M18.7552 11.325V11.3251M18.7552 11.3251V11.3252M18.7552 11.3251V11.3252M18.7552 11.3252V11.3254M18.7552 11.3252V11.3254M18.7552 11.3254V11.3255M18.7552 11.3254V11.3255M18.7552 11.3255V11.3256M18.7552 11.3255V11.3256M18.7552 11.3256V11.3257M18.7552 11.3256V11.3257M18.7552 11.3257V11.3258M18.7552 11.3257V11.3258M18.7552 11.3258V11.3259M18.7552 11.3258V11.3259M18.7552 11.3259V11.326M18.7552 11.3259V11.326M18.7552 11.326V11.3261M18.7552 11.326V11.3261M18.7552 11.3261V11.3262M18.7552 11.3261V11.3262M18.7552 11.3262V11.3263M18.7552 11.3262V11.3263M18.7552 11.3263V11.3264M18.7552 11.3263V11.3264M18.7552 11.3264V11.3265M18.7552 11.3264V11.3265M18.7552 11.3265V11.3266M18.7552 11.3265V11.3266M18.7552 11.3266V11.3267M18.7552 11.3266V11.3267M18.7552 11.3267V11.3269M18.7552 11.3267V11.3269M18.7552 11.3269V11.327M18.7552 11.3269V11.327M18.7552 11.327V11.3271M18.7552 11.327V11.3271M18.7552 11.3271V11.3272M18.7552 11.3271V11.3272M18.7552 11.3272V11.3273M18.7552 11.3272V11.3273M18.7552 11.3273V11.3274M18.7552 11.3273V11.3274M18.7552 11.3274V11.3275M18.7552 11.3274V11.3275M18.7552 11.3275V11.3276M18.7552 11.3275V11.3276M18.7552 11.3276V11.3277M18.7552 11.3276V11.3277M18.7552 11.3277V11.3278M18.7552 11.3277V11.3278M18.7552 11.3278V11.3279M18.7552 11.3278V11.3279M18.7552 11.3279V11.328M18.7552 11.3279V11.328M18.7552 11.328V11.3281M18.7552 11.328V11.3281M18.7552 11.3281V11.3283M18.7552 11.3281V11.3283M18.7552 11.3283V11.3284M18.7552 11.3283V11.3284M18.7552 11.3284V11.3285M18.7552 11.3284V11.3285M18.7552 11.3285V11.3286M18.7552 11.3285V11.3286M18.7552 11.3286V11.3287M18.7552 11.3286V11.3287M18.7552 11.3287V11.3288M18.7552 11.3287V11.3288M18.7552 11.3288V11.3289M18.7552 11.3288V11.3289M18.7552 11.3289V11.329M18.7552 11.3289V11.329M18.7552 11.329V11.3291M18.7552 11.329V11.3291M18.7552 11.3291V11.3292M18.7552 11.3291V11.3292M18.7552 11.3292V11.3293M18.7552 11.3292V11.3293M18.7552 11.3293V11.3294M18.7552 11.3293V11.3294M18.7552 11.3294V11.3295M18.7552 11.3294V11.3295M18.7552 11.3295V11.3296M18.7552 11.3295V11.3296M18.7552 11.3296V11.3298M18.7552 11.3296V11.3298M18.7552 11.3298V11.3299M18.7552 11.3298V11.3299M18.7552 11.3299V11.33M18.7552 11.3299V11.33M18.7552 11.33V11.3301M18.7552 11.33V11.3301M18.7552 11.3301V11.3302M18.7552 11.3301V11.3302M18.7552 11.3302V11.3303M18.7552 11.3302V11.3303M18.7552 11.3303V11.3304M18.7552 11.3303V11.3304M18.7552 11.3304V11.3305M18.7552 11.3304V11.3305M18.7552 11.3305V11.3306M18.7552 11.3305V11.3306M18.7552 11.3306V11.3307M18.7552 11.3306V11.3307M18.7552 11.3307V11.3308M18.7552 11.3307V11.3308M18.7552 11.3308V11.3309M18.7552 11.3308V11.3309M18.7552 11.3309V11.331M18.7552 11.3309V11.331M18.7552 11.331V11.3312M18.7552 11.331V11.3312M18.7552 11.3312V11.3313M18.7552 11.3312V11.3313M18.7552 11.3313V11.3314M18.7552 11.3313V11.3314M18.7552 11.3314V11.3315M18.7552 11.3314V11.3315M18.7552 11.3315V11.3316M18.7552 11.3315V11.3316M18.7552 11.3316V11.3317M18.7552 11.3316V11.3317M18.7552 11.3317V11.3318M18.7552 11.3317V11.3318M18.7552 11.3318V11.3319M18.7552 11.3318V11.3319M18.7552 11.3319V11.332M18.7552 11.3319V11.332M18.7552 11.332V11.3321M18.7552 11.332V11.3321M18.7552 11.3321V11.3322M18.7552 11.3321V11.3322M18.7552 11.3322V11.3323M18.7552 11.3322V11.3323M18.7552 11.3323V11.3324M18.7552 11.3323V11.3324M18.7552 11.3324V11.3325M18.7552 11.3324V11.3325M18.7552 11.3325V11.3327M18.7552 11.3325V11.3327M18.7552 11.3327V11.3328M18.7552 11.3327V11.3328M18.7552 11.3328V11.3329M18.7552 11.3328V11.3329M18.7552 11.3329V11.333M18.7552 11.3329V11.333M18.7552 11.333V11.3331M18.7552 11.333V11.3331M18.7552 11.3331V11.3332M18.7552 11.3331V11.3332M18.7552 11.3332V11.3333M18.7552 11.3332V11.3333M18.7552 11.3333V11.3334M18.7552 11.3333V11.3334M18.7552 11.3334V11.3335M18.7552 11.3334V11.3335M18.7552 11.3335V11.3336M18.7552 11.3335V11.3336M18.7552 11.3336V11.3337M18.7552 11.3336V11.3337M18.7552 11.3337V11.3338M18.7552 11.3337V11.3338M18.7552 11.3338V11.3339M18.7552 11.3338V11.3339M18.7552 11.3339V11.3341M18.7552 11.3339V11.3341M18.7552 11.3341V11.3342M18.7552 11.3341V11.3342M18.7552 11.3342V11.3343M18.7552 11.3342V11.3343M18.7552 11.3343V11.3344M18.7552 11.3343V11.3344M18.7552 11.3344V11.3345M18.7552 11.3344V11.3345M18.7552 11.3345V11.3346M18.7552 11.3345V11.3346M18.7552 11.3346V11.3347M18.7552 11.3346V11.3347M18.7552 11.3347V11.3348M18.7552 11.3347V11.3348M18.7552 11.3348V11.3349M18.7552 11.3348V11.3349M18.7552 11.3349V11.335M18.7552 11.3349V11.335M18.7552 11.335V11.3351M18.7552 11.335V11.3351M18.7552 11.3351V11.3352M18.7552 11.3351V11.3352M18.7552 11.3352V11.3353M18.7552 11.3352V11.3353M18.7552 11.3353V11.3354M18.7552 11.3353V11.3354M18.7552 11.3354V11.3356M18.7552 11.3354V11.3356M18.7552 11.3356V11.3357M18.7552 11.3356V11.3357M18.7552 11.3357V11.3358M18.7552 11.3357V11.3358M18.7552 11.3358V11.3359M18.7552 11.3358V11.3359M18.7552 11.3359V11.336M18.7552 11.3359V11.336M18.7552 11.336V11.3361M18.7552 11.336V11.3361M18.7552 11.3361V11.3362M18.7552 11.3361V11.3362M18.7552 11.3362V11.3363M18.7552 11.3362V11.3363M18.7552 11.3363V11.3364M18.7552 11.3363V11.3364M18.7552 11.3364V11.3365M18.7552 11.3364V11.3365M18.7552 11.3365V11.3366M18.7552 11.3365V11.3366M18.7552 11.3366V11.3367M18.7552 11.3366V11.3367M18.7552 11.3367V11.3368M18.7552 11.3367V11.3368M18.7552 11.3368V11.337M18.7552 11.3368V11.337M18.7552 11.337V11.3371M18.7552 11.337V11.3371M18.7552 11.3371V11.3372M18.7552 11.3371V11.3372M18.7552 11.3372V11.3373M18.7552 11.3372V11.3373M18.7552 11.3373V11.3374M18.7552 11.3373V11.3374M18.7552 11.3374V11.3375M18.7552 11.3374V11.3375M18.7552 11.3375V11.3376M18.7552 11.3375V11.3376M18.7552 11.3376V11.3377M18.7552 11.3376V11.3377M18.7552 11.3377V11.3378M18.7552 11.3377V11.3378M18.7552 11.3378V11.3379M18.7552 11.3378V11.3379M18.7552 11.3379V11.338M18.7552 11.3379V11.338M18.7552 11.338V11.3381M18.7552 11.338V11.3381M18.7552 11.3381V11.3382M18.7552 11.3381V11.3382M18.7552 11.3382V11.3383M18.7552 11.3382V11.3383M18.7552 11.3383V11.3385M18.7552 11.3383V11.3385M18.7552 11.3385V11.3386M18.7552 11.3385V11.3386M18.7552 11.3386V11.3387M18.7552 11.3386V11.3387M18.7552 11.3387V11.3388M18.7552 11.3387V11.3388M18.7552 11.3388V11.3389M18.7552 11.3388V11.3389M18.7552 11.3389V11.339M18.7552 11.3389V11.339M18.7552 11.339V11.3391M18.7552 11.339V11.3391M18.7552 11.3391V11.3392M18.7552 11.3391V11.3392M18.7552 11.3392V11.3393M18.7552 11.3392V11.3393M18.7552 11.3393V11.3394M18.7552 11.3393V11.3394M18.7552 11.3394V11.3395M18.7552 11.3394V11.3395M18.7552 11.3395V11.3396M18.7552 11.3395V11.3396M18.7552 11.3396V11.3397M18.7552 11.3396V11.3397M18.7552 11.3397V11.3399M18.7552 11.3397V11.3399M18.7552 11.3399V11.34M18.7552 11.3399V11.34M18.7552 11.34V11.3401M18.7552 11.34V11.3401M18.7552 11.3401V11.3402M18.7552 11.3401V11.3402M18.7552 11.3402V11.3403M18.7552 11.3402V11.3403M18.7552 11.3403V11.3404M18.7552 11.3403V11.3404M18.7552 11.3404V11.3405M18.7552 11.3404V11.3405M18.7552 11.3405V13.0072M18.7552 11.3405V13.0072M18.7552 13.0072V13.0073M18.7552 13.0072V13.0073M18.7552 13.0073V13.0074M18.7552 13.0073V13.0074M18.7552 13.0074V13.0075M18.7552 13.0074V13.0075M18.7552 13.0075V13.0076M18.7552 13.0075V13.0076M18.7552 13.0076V13.0077M18.7552 13.0076V13.0077M18.7552 13.0077V13.0078M18.7552 13.0077V13.0078M18.7552 13.0078V13.0079M18.7552 13.0078V13.0079M18.7552 13.0079V13.008M18.7552 13.0079V13.008M18.7552 13.008V13.0081M18.7552 13.008V13.0081M18.7552 13.0081V13.0082M18.7552 13.0081V13.0082M18.7552 13.0082V13.0083M18.7552 13.0082V13.0083M18.7552 13.0083V13.0085M18.7552 13.0083V13.0085M18.7552 13.0085V13.0086M18.7552 13.0085V13.0086M18.7552 13.0086V13.0087M18.7552 13.0086V13.0087M18.7552 13.0087V13.0088M18.7552 13.0087V13.0088M18.7552 13.0088V13.0089M18.7552 13.0088V13.0089M18.7552 13.0089V13.009M18.7552 13.0089V13.009M18.7552 13.009V13.0091M18.7552 13.009V13.0091M18.7552 13.0091V13.0092M18.7552 13.0091V13.0092M18.7552 13.0092V13.0093M18.7552 13.0092V13.0093M18.7552 13.0093V13.0094M18.7552 13.0093V13.0094M18.7552 13.0094V13.0095M18.7552 13.0094V13.0095M18.7552 13.0095V13.0096M18.7552 13.0095V13.0096M18.7552 13.0096V13.0097M18.7552 13.0096V13.0097M18.7552 13.0097V13.0098M18.7552 13.0097V13.0098M18.7552 13.0098V13.01M18.7552 13.0098V13.01M18.7552 13.01V13.0101M18.7552 13.01V13.0101M18.7552 13.0101V13.0102M18.7552 13.0101V13.0102M18.7552 13.0102V13.0103M18.7552 13.0102V13.0103M18.7552 13.0103V13.0104M18.7552 13.0103V13.0104M18.7552 13.0104V13.0105M18.7552 13.0104V13.0105M18.7552 13.0105V13.0106M18.7552 13.0105V13.0106M18.7552 13.0106V13.0107M18.7552 13.0106V13.0107M18.7552 13.0107V13.0108M18.7552 13.0107V13.0108M18.7552 13.0108V13.0109M18.7552 13.0108V13.0109M18.7552 13.0109V13.011M18.7552 13.0109V13.011M18.7552 13.011V13.0111M18.7552 13.011V13.0111M18.7552 13.0111V13.0112M18.7552 13.0111V13.0112M18.7552 13.0112V13.0114M18.7552 13.0112V13.0114M18.7552 13.0114V13.0115M18.7552 13.0114V13.0115M18.7552 13.0115V13.0116M18.7552 13.0115V13.0116M18.7552 13.0116V13.0117M18.7552 13.0116V13.0117M18.7552 13.0117V13.0118M18.7552 13.0117V13.0118M18.7552 13.0118V13.0119M18.7552 13.0118V13.0119M18.7552 13.0119V13.012M18.7552 13.0119V13.012M18.7552 13.012V13.0121M18.7552 13.012V13.0121M18.7552 13.0121V13.0122M18.7552 13.0121V13.0122M18.7552 13.0122V13.0123M18.7552 13.0122V13.0123M18.7552 13.0123V13.0124M18.7552 13.0123V13.0124M18.7552 13.0124V13.0125M18.7552 13.0124V13.0125M18.7552 13.0125V13.0126M18.7552 13.0125V13.0126M18.7552 13.0126V13.0127M18.7552 13.0126V13.0127M18.7552 13.0127V13.0129M18.7552 13.0127V13.0129M18.7552 13.0129V13.013M18.7552 13.0129V13.013M18.7552 13.013V13.0131M18.7552 13.013V13.0131M18.7552 13.0131V13.0132M18.7552 13.0131V13.0132M18.7552 13.0132V13.0133M18.7552 13.0132V13.0133M18.7552 13.0133V13.0134M18.7552 13.0133V13.0134M18.7552 13.0134V13.0135M18.7552 13.0134V13.0135M18.7552 13.0135V13.0136M18.7552 13.0135V13.0136M18.7552 13.0136V13.0137M18.7552 13.0136V13.0137M18.7552 13.0137V13.0138M18.7552 13.0137V13.0138M18.7552 13.0138V13.0139M18.7552 13.0138V13.0139M18.7552 13.0139V13.014M18.7552 13.0139V13.014M18.7552 13.014V13.0141M18.7552 13.014V13.0141M18.7552 13.0141V13.0143M18.7552 13.0141V13.0143M18.7552 13.0143V13.0144M18.7552 13.0143V13.0144M18.7552 13.0144V13.0145M18.7552 13.0144V13.0145M18.7552 13.0145V13.0146M18.7552 13.0145V13.0146M18.7552 13.0146V13.0147M18.7552 13.0146V13.0147M18.7552 13.0147V13.0148M18.7552 13.0147V13.0148M18.7552 13.0148V13.0149M18.7552 13.0148V13.0149M18.7552 13.0149V13.015M18.7552 13.0149V13.015M18.7552 13.015V13.0151M18.7552 13.015V13.0151M18.7552 13.0151V13.0152M18.7552 13.0151V13.0152M18.7552 13.0152V13.0153M18.7552 13.0152V13.0153M18.7552 13.0153V13.0154M18.7552 13.0153V13.0154M18.7552 13.0154V13.0155M18.7552 13.0154V13.0155M18.7552 13.0155V13.0156M18.7552 13.0155V13.0156M18.7552 13.0156V13.0158M18.7552 13.0156V13.0158M18.7552 13.0158V13.0159M18.7552 13.0158V13.0159M18.7552 13.0159V13.016M18.7552 13.0159V13.016M18.7552 13.016V13.0161M18.7552 13.016V13.0161M18.7552 13.0161V13.0162M18.7552 13.0161V13.0162M18.7552 13.0162V13.0163M18.7552 13.0162V13.0163M18.7552 13.0163V13.0164M18.7552 13.0163V13.0164M18.7552 13.0164V13.0165M18.7552 13.0164V13.0165M18.7552 13.0165V13.0166M18.7552 13.0165V13.0166M18.7552 13.0166V13.0167M18.7552 13.0166V13.0167M18.7552 13.0167V13.0168M18.7552 13.0167V13.0168M18.7552 13.0168V13.0169M18.7552 13.0168V13.0169M18.7552 13.0169V13.017M18.7552 13.0169V13.017M18.7552 13.017V13.0172M18.7552 13.017V13.0172M18.7552 13.0172V13.0173M18.7552 13.0172V13.0173M18.7552 13.0173V13.0174M18.7552 13.0173V13.0174M18.7552 13.0174V13.0175M18.7552 13.0174V13.0175M18.7552 13.0175V13.0176M18.7552 13.0175V13.0176M18.7552 13.0176V13.0177M18.7552 13.0176V13.0177M18.7552 13.0177V13.0178M18.7552 13.0177V13.0178M18.7552 13.0178V13.0179M18.7552 13.0178V13.0179M18.7552 13.0179V13.018M18.7552 13.0179V13.018M18.7552 13.018V13.0181M18.7552 13.018V13.0181M18.7552 13.0181V13.0182M18.7552 13.0181V13.0182M18.7552 13.0182V13.0183M18.7552 13.0182V13.0183M18.7552 13.0183V13.0184M18.7552 13.0183V13.0184M18.7552 13.0184V13.0185M18.7552 13.0184V13.0185M18.7552 13.0185V13.0187M18.7552 13.0185V13.0187M18.7552 13.0187V13.0188M18.7552 13.0187V13.0188M18.7552 13.0188V13.0189M18.7552 13.0188V13.0189M18.7552 13.0189V13.019M18.7552 13.0189V13.019M18.7552 13.019V13.0191M18.7552 13.019V13.0191M18.7552 13.0191V13.0192M18.7552 13.0191V13.0192M18.7552 13.0192V13.0193M18.7552 13.0192V13.0193M18.7552 13.0193V13.0194M18.7552 13.0193V13.0194M18.7552 13.0194V13.0195M18.7552 13.0194V13.0195M18.7552 13.0195V13.0196M18.7552 13.0195V13.0196M18.7552 13.0196V13.0197M18.7552 13.0196V13.0197M18.7552 13.0197V13.0198M18.7552 13.0197V13.0198M18.7552 13.0198V13.0199M18.7552 13.0198V13.0199M18.7552 13.0199V13.0201M18.7552 13.0199V13.0201M18.7552 13.0201V13.0202M18.7552 13.0201V13.0202M18.7552 13.0202V13.0203M18.7552 13.0202V13.0203M18.7552 13.0203V13.0204M18.7552 13.0203V13.0204M18.7552 13.0204V13.0205M18.7552 13.0204V13.0205M18.7552 13.0205V13.0206M18.7552 13.0205V13.0206M18.7552 13.0206V13.0207M18.7552 13.0206V13.0207M18.7552 13.0207V13.0208M18.7552 13.0207V13.0208M18.7552 13.0208V13.0209M18.7552 13.0208V13.0209M18.7552 13.0209V13.021M18.7552 13.0209V13.021M18.7552 13.021V13.0211M18.7552 13.021V13.0211M18.7552 13.0211V13.0212M18.7552 13.0211V13.0212M18.7552 13.0212V13.0213M18.7552 13.0212V13.0213M18.7552 13.0213V13.0214M18.7552 13.0213V13.0214M18.7552 13.0214V13.0216M18.7552 13.0214V13.0216M18.7552 13.0216V13.0217M18.7552 13.0216V13.0217M18.7552 13.0217V13.0218M18.7552 13.0217V13.0218M18.7552 13.0218V13.0219M18.7552 13.0218V13.0219M18.7552 13.0219V13.022M18.7552 13.0219V13.022M18.7552 13.022V13.0221M18.7552 13.022V13.0221M18.7552 13.0221V13.0222M18.7552 13.0221V13.0222M18.7552 13.0222V13.0223M18.7552 13.0222V13.0223M18.7552 13.0223V13.0224M18.7552 13.0223V13.0224M18.7552 13.0224V13.0225M18.7552 13.0224V13.0225M18.7552 13.0225V13.0226M18.7552 13.0225V13.0226M18.7552 13.0226V13.0227M18.7552 13.0226V13.0227M18.7552 13.0227V13.0228M18.7552 13.0227V13.0228M18.7552 13.0228V13.023M18.7552 13.0228V13.023M18.7552 13.023V13.0231M18.7552 13.023V13.0231M18.7552 13.0231V13.0232M18.7552 13.0231V13.0232M18.7552 13.0232V13.0233M18.7552 13.0232V13.0233M18.7552 13.0233V13.0234M18.7552 13.0233V13.0234M18.7552 13.0234V13.0235M18.7552 13.0234V13.0235M18.7552 13.0235V13.0236M18.7552 13.0235V13.0236M18.7552 13.0236V13.0237M18.7552 13.0236V13.0237M18.7552 13.0237V13.0238M18.7552 13.0237V13.0238M18.7552 13.0238V13.0239M18.7552 13.0238V13.0239M18.7552 13.0239V13.024M18.7552 13.0239V13.024M18.7552 13.024V13.0241M18.7552 13.024V13.0241M18.7552 13.0241V13.0242M18.7552 13.0241V13.0242M18.7552 13.0242V13.0243M18.7552 13.0242V13.0243M18.7552 13.0243V13.0245M18.7552 13.0243V13.0245M18.7552 13.0245V13.0246M18.7552 13.0245V13.0246M18.7552 13.0246V13.0247M18.7552 13.0246V13.0247M18.7552 13.0247V13.0248M18.7552 13.0247V13.0248M18.7552 13.0248V13.0249M18.7552 13.0248V13.0249M18.7552 13.0249V13.025M18.7552 13.0249V13.025M18.7552 13.025V13.0251M18.7552 13.025V13.0251M18.7552 13.0251V13.0252M18.7552 13.0251V13.0252M18.7552 13.0252V13.0253M18.7552 13.0252V13.0253M18.7552 13.0253V13.0254M18.7552 13.0253V13.0254M18.7552 13.0254V13.0255M18.7552 13.0254V13.0255M18.7552 13.0255V13.0256M18.7552 13.0255V13.0256M18.7552 13.0256V13.0257M18.7552 13.0256V13.0257M18.7552 13.0257V13.0258M18.7552 13.0257V13.0258M18.7552 13.0258V13.026M18.7552 13.0258V13.026M18.7552 13.026V13.0261M18.7552 13.026V13.0261M18.7552 13.0261V13.0262M18.7552 13.0261V13.0262M18.7552 13.0262V13.0263M18.7552 13.0262V13.0263M18.7552 13.0263V13.0264M18.7552 13.0263V13.0264M18.7552 13.0264V13.0265M18.7552 13.0264V13.0265M18.7552 13.0265V13.0266M18.7552 13.0265V13.0266M18.7552 13.0266V13.0267M18.7552 13.0266V13.0267M18.7552 13.0267V13.0268M18.7552 13.0267V13.0268M18.7552 13.0268V13.0269M18.7552 13.0268V13.0269M18.7552 13.0269V13.027M18.7552 13.0269V13.027M18.7552 13.027V13.0271M18.7552 13.027V13.0271M18.7552 13.0271V13.0272M18.7552 13.0271V13.0272M18.7552 13.0272V13.0274M18.7552 13.0272V13.0274M18.7552 13.0274V13.0275M18.7552 13.0274V13.0275M18.7552 13.0275V13.0276M18.7552 13.0275V13.0276M18.7552 13.0276V13.0277M18.7552 13.0276V13.0277M18.7552 13.0277V13.0278M18.7552 13.0277V13.0278M18.7552 13.0278V13.0279M18.7552 13.0278V13.0279M18.7552 13.0279V13.028M18.7552 13.0279V13.028M18.7552 13.028V13.0281M18.7552 13.028V13.0281M18.7552 13.0281V13.0282M18.7552 13.0281V13.0282M18.7552 13.0282V13.0283M18.7552 13.0282V13.0283M18.7552 13.0283V13.0284M18.7552 13.0283V13.0284M18.7552 13.0284V13.0285M18.7552 13.0284V13.0285M18.7552 13.0285V13.0286M18.7552 13.0285V13.0286M18.7552 13.0286V13.0287M18.7552 13.0286V13.0287M18.7552 13.0287V13.0289M18.7552 13.0287V13.0289M18.7552 13.0289V13.029M18.7552 13.0289V13.029M18.7552 13.029V13.0291M18.7552 13.029V13.0291M18.7552 13.0291V13.0292M18.7552 13.0291V13.0292M18.7552 13.0292V13.0293M18.7552 13.0292V13.0293M18.7552 13.0293V13.0294M18.7552 13.0293V13.0294M18.7552 13.0294V13.0295M18.7552 13.0294V13.0295M18.7552 13.0295V13.0296M18.7552 13.0295V13.0296M18.7552 13.0296V13.0297M18.7552 13.0296V13.0297M18.7552 13.0297V13.0298M18.7552 13.0297V13.0298M18.7552 13.0298V13.0299M18.7552 13.0298V13.0299M18.7552 13.0299V13.03M18.7552 13.0299V13.03M18.7552 13.03V13.0301M18.7552 13.03V13.0301M18.7552 13.0301V13.0302M18.7552 13.0301V13.0302M18.7552 13.0302V13.0304M18.7552 13.0302V13.0304M18.7552 13.0304V13.0305M18.7552 13.0304V13.0305M18.7552 13.0305V13.0306M18.7552 13.0305V13.0306M18.7552 13.0306V13.0307M18.7552 13.0306V13.0307M18.7552 13.0307V13.0308M18.7552 13.0307V13.0308M18.7552 13.0308V13.0309M18.7552 13.0308V13.0309M18.7552 13.0309V13.031M18.7552 13.0309V13.031M18.7552 13.031V13.0311M18.7552 13.031V13.0311M18.7552 13.0311V13.0312M18.7552 13.0311V13.0312M18.7552 13.0312V13.0313M18.7552 13.0312V13.0313M18.7552 13.0313V13.0314M18.7552 13.0313V13.0314M18.7552 13.0314V13.0315M18.7552 13.0314V13.0315M18.7552 13.0315V13.0316M18.7552 13.0315V13.0316M18.7552 13.0316V13.0317M18.7552 13.0316V13.0317M18.7552 13.0317V13.0319M18.7552 13.0317V13.0319M18.7552 13.0319V13.032M18.7552 13.0319V13.032M18.7552 13.032V13.0321M18.7552 13.032V13.0321M18.7552 13.0321V13.0322M18.7552 13.0321V13.0322M18.7552 13.0322V13.0323M18.7552 13.0322V13.0323M18.7552 13.0323V13.0324M18.7552 13.0323V13.0324M18.7552 13.0324V13.0325M18.7552 13.0324V13.0325M18.7552 13.0325V13.0326M18.7552 13.0325V13.0326M18.7552 13.0326V13.0327M18.7552 13.0326V13.0327M18.7552 13.0327V13.0328M18.7552 13.0327V13.0328M18.7552 13.0328V13.0329M18.7552 13.0328V13.0329M18.7552 13.0329V13.033M18.7552 13.0329V13.033M18.7552 13.033V13.0331M18.7552 13.033V13.0331M18.7552 13.0331V13.0332M18.7552 13.0331V13.0332M18.7552 13.0332V13.0334M18.7552 13.0332V13.0334M18.7552 13.0334V13.0335M18.7552 13.0334V13.0335M18.7552 13.0335V13.0336M18.7552 13.0335V13.0336M18.7552 13.0336V13.0337M18.7552 13.0336V13.0337M18.7552 13.0337V13.0338M18.7552 13.0337V13.0338M18.7552 13.0338V13.0339M18.7552 13.0338V13.0339M18.7552 13.0339V13.034M18.7552 13.0339V13.034M18.7552 13.034V13.0341M18.7552 13.034V13.0341M18.7552 13.0341V13.0342M18.7552 13.0341V13.0342M18.7552 13.0342V13.0343M18.7552 13.0342V13.0343M18.7552 13.0343V13.0344M18.7552 13.0343V13.0344M18.7552 13.0344V13.0345M18.7552 13.0344V13.0345M18.7552 13.0345V13.0346M18.7552 13.0345V13.0346M18.7552 13.0346V13.0347M18.7552 13.0346V13.0347M18.7552 13.0347V13.0349M18.7552 13.0347V13.0349M18.7552 13.0349V13.035M18.7552 13.0349V13.035M18.7552 13.035V13.0351M18.7552 13.035V13.0351M18.7552 13.0351V13.0352M18.7552 13.0351V13.0352M18.7552 13.0352V13.0353M18.7552 13.0352V13.0353M18.7552 13.0353V13.0354M18.7552 13.0353V13.0354M18.7552 13.0354V13.0355M18.7552 13.0354V13.0355M18.7552 13.0355V13.0356M18.7552 13.0355V13.0356M18.7552 13.0356V13.0357M18.7552 13.0356V13.0357M18.7552 13.0357V13.0358M18.7552 13.0357V13.0358M18.7552 13.0358V13.0359M18.7552 13.0358V13.0359M18.7552 13.0359V13.036M18.7552 13.0359V13.036M18.7552 13.036V13.0361M18.7552 13.036V13.0361M18.7552 13.0361V13.0363M18.7552 13.0361V13.0363M18.7552 13.0363V13.0364M18.7552 13.0363V13.0364M18.7552 13.0364V13.0365M18.7552 13.0364V13.0365M18.7552 13.0365V13.0366M18.7552 13.0365V13.0366M18.7552 13.0366V13.0367M18.7552 13.0366V13.0367M18.7552 13.0367V13.0368M18.7552 13.0367V13.0368M18.7552 13.0368V13.0369M18.7552 13.0368V13.0369M18.7552 13.0369V13.037M18.7552 13.0369V13.037M18.7552 13.037V13.0371M18.7552 13.037V13.0371M18.7552 13.0371V13.0372M18.7552 13.0371V13.0372M18.7552 13.0372V13.0373M18.7552 13.0372V13.0373M18.7552 13.0373V13.0374M18.7552 13.0373V13.0374M18.7552 13.0374V13.0375M18.7552 13.0374V13.0375M18.7552 13.0375V13.0376M18.7552 13.0375V13.0376M18.7552 13.0376V13.0377M18.7552 13.0376V13.0377M18.7552 13.0377V13.0379M18.7552 13.0377V13.0379M18.7552 13.0379V13.038M18.7552 13.0379V13.038M18.7552 13.038V13.0381M18.7552 13.038V13.0381M18.7552 13.0381V13.0382M18.7552 13.0381V13.0382M18.7552 13.0382V13.0383M18.7552 13.0382V13.0383M18.7552 13.0383V13.0384M18.7552 13.0383V13.0384M18.7552 13.0384V13.0385M18.7552 13.0384V13.0385M18.7552 13.0385V13.0386M18.7552 13.0385V13.0386M18.7552 13.0386V13.0387M18.7552 13.0386V13.0387M18.7552 13.0387V13.0388M18.7552 13.0387V13.0388M18.7552 13.0388V13.0389M18.7552 13.0388V13.0389M18.7552 13.0389V13.039M18.7552 13.0389V13.039M18.7552 13.039V13.0391M18.7552 13.039V13.0391M18.7552 13.0391V13.0392M18.7552 13.0391V13.0392M18.7552 13.0392V13.0394M18.7552 13.0392V13.0394M18.7552 13.0394V13.0395M18.7552 13.0394V13.0395M18.7552 13.0395V13.0396M18.7552 13.0395V13.0396M18.7552 13.0396V13.0397M18.7552 13.0396V13.0397M18.7552 13.0397V13.0398M18.7552 13.0397V13.0398M18.7552 13.0398V13.0399M18.7552 13.0398V13.0399M18.7552 13.0399V13.04M18.7552 13.0399V13.04M18.7552 13.04V13.0401M18.7552 13.04V13.0401M18.7552 13.0401V13.0402M18.7552 13.0401V13.0402M18.7552 13.0402V13.0403M18.7552 13.0402V13.0403M18.7552 13.0403V13.0404M18.7552 13.0403V13.0404M18.7552 13.0404V13.0405M18.7552 13.0404V13.0405M18.7552 13.0405V13.0406M18.7552 13.0405V13.0406M18.7552 13.0406V13.0407M18.7552 13.0406V13.0407M18.7552 13.0407V13.0409M18.7552 13.0407V13.0409M18.7552 13.0409V13.041M18.7552 13.0409V13.041M18.7552 13.041V13.0411M18.7552 13.041V13.0411M18.7552 13.0411V13.0412M18.7552 13.0411V13.0412M18.7552 13.0412V13.0413M18.7552 13.0412V13.0413M18.7552 13.0413V13.0414M18.7552 13.0413V13.0414M18.7552 13.0414V13.0415M18.7552 13.0414V13.0415M18.7552 13.0415V13.0416M18.7552 13.0415V13.0416M18.7552 13.0416V13.0417M18.7552 13.0416V13.0417M18.7552 13.0417V13.0418M18.7552 13.0417V13.0418M18.7552 13.0418V13.0419M18.7552 13.0418V13.0419M18.7552 13.0419V13.042M18.7552 13.0419V13.042M18.7552 13.042V13.0421M18.7552 13.042V13.0421M18.7552 13.0421V13.0422M18.7552 13.0421V13.0422M18.7552 13.0422V13.0424M18.7552 13.0422V13.0424M18.7552 13.0424V13.0425M18.7552 13.0424V13.0425M18.7552 13.0425V13.0426M18.7552 13.0425V13.0426M18.7552 13.0426V13.0427M18.7552 13.0426V13.0427M18.7552 13.0427V13.0428M18.7552 13.0427V13.0428M18.7552 13.0428V13.0429M18.7552 13.0428V13.0429M18.7552 13.0429V13.043M18.7552 13.0429V13.043M18.7552 13.043V13.0431M18.7552 13.043V13.0431M18.7552 13.0431V13.0432M18.7552 13.0431V13.0432M18.7552 13.0432V13.0433M18.7552 13.0432V13.0433M18.7552 13.0433V13.0434M18.7552 13.0433V13.0434M18.7552 13.0434V13.0435M18.7552 13.0434V13.0435M18.7552 13.0435V13.0436M18.7552 13.0435V13.0436M18.7552 13.0436V13.0437M18.7552 13.0436V13.0437M18.7552 13.0437V13.0439M18.7552 13.0437V13.0439M18.7552 13.0439V13.044M18.7552 13.0439V13.044M18.7552 13.044V13.0441M18.7552 13.044V13.0441M18.7552 13.0441V13.0442M18.7552 13.0441V13.0442M18.7552 13.0442V13.0443M18.7552 13.0442V13.0443M18.7552 13.0443V13.0444M18.7552 13.0443V13.0444M18.7552 13.0444V13.0445M18.7552 13.0444V13.0445M18.7552 13.0445V13.0446M18.7552 13.0445V13.0446M18.7552 13.0446V13.0447M18.7552 13.0446V13.0447M18.7552 13.0447V13.0448M18.7552 13.0447V13.0448M18.7552 13.0448V13.0449M18.7552 13.0448V13.0449M18.7552 13.0449V13.045M18.7552 13.0449V13.045M18.7552 13.045V13.0451M18.7552 13.045V13.0451M18.7552 13.0451V13.0452M18.7552 13.0451V13.0452M18.7552 13.0452V13.0453M18.7552 13.0452V13.0453M18.7552 13.0453V13.0455M18.7552 13.0453V13.0455M18.7552 13.0455V13.0456M18.7552 13.0455V13.0456M18.7552 13.0456V13.0457M18.7552 13.0456V13.0457M18.7552 13.0457V13.0458M18.7552 13.0457V13.0458M18.7552 13.0458V13.0459M18.7552 13.0458V13.0459M18.7552 13.0459V13.046M18.7552 13.0459V13.046M18.7552 13.046V13.0461M18.7552 13.046V13.0461M18.7552 13.0461V13.0462M18.7552 13.0461V13.0462M18.7552 13.0462V13.0463M18.7552 13.0462V13.0463M18.7552 13.0463V13.0464M18.7552 13.0463V13.0464M18.7552 13.0464V13.0465M18.7552 13.0464V13.0465M18.7552 13.0465V13.0466M18.7552 13.0465V13.0466M18.7552 13.0466V13.0467M18.7552 13.0466V13.0467M18.7552 13.0467V13.0468M18.7552 13.0467V13.0468M18.7552 13.0468V13.047M18.7552 13.0468V13.047M18.7552 13.047V13.0471M18.7552 13.047V13.0471M18.7552 13.0471V13.0472M18.7552 13.0471V13.0472M18.7552 13.0472V13.0473M18.7552 13.0472V13.0473M18.7552 13.0473V13.0474M18.7552 13.0473V13.0474M18.7552 13.0474V13.0475M18.7552 13.0474V13.0475M18.7552 13.0475V13.0476M18.7552 13.0475V13.0476M18.7552 13.0476V13.0477M18.7552 13.0476V13.0477M18.7552 13.0477V13.0478M18.7552 13.0477V13.0478M18.7552 13.0478V13.0479M18.7552 13.0478V13.0479M18.7552 13.0479V13.048M18.7552 13.0479V13.048M18.7552 13.048V13.0481M18.7552 13.048V13.0481M18.7552 13.0481V13.0482M18.7552 13.0481V13.0482M18.7552 13.0482V13.0483M18.7552 13.0482V13.0483M18.7552 13.0483V13.0484M18.7552 13.0483V13.0484M18.7552 13.0484V13.0486M18.7552 13.0484V13.0486M18.7552 13.0486V13.0487M18.7552 13.0486V13.0487M18.7552 13.0487V13.0488M18.7552 13.0487V13.0488M18.7552 13.0488V13.0489M18.7552 13.0488V13.0489M18.7552 13.0489V13.049M18.7552 13.0489V13.049M18.7552 13.049V13.0491M18.7552 13.049V13.0491M18.7552 13.0491V13.0492M18.7552 13.0491V13.0492M18.7552 13.0492V13.0493M18.7552 13.0492V13.0493M18.7552 13.0493V13.0494M18.7552 13.0493V13.0494M18.7552 13.0494V13.0495M18.7552 13.0494V13.0495M18.7552 13.0495V13.0496M18.7552 13.0495V13.0496M18.7552 13.0496V13.0497M18.7552 13.0496V13.0497M18.7552 13.0497V13.0498M18.7552 13.0497V13.0498M18.7552 13.0498V13.0499M18.7552 13.0498V13.0499M18.7552 13.0499V13.0501M18.7552 13.0499V13.0501M18.7552 13.0501V13.0502M18.7552 13.0501V13.0502M18.7552 13.0502V13.0503M18.7552 13.0502V13.0503M18.7552 13.0503V13.0504M18.7552 13.0503V13.0504M18.7552 13.0504V13.0505M18.7552 13.0504V13.0505M18.7552 13.0505V13.0506M18.7552 13.0505V13.0506M18.7552 13.0506V13.0507M18.7552 13.0506V13.0507M18.7552 13.0507V13.0508M18.7552 13.0507V13.0508M18.7552 13.0508V13.0509M18.7552 13.0508V13.0509M18.7552 13.0509V13.051M18.7552 13.0509V13.051M18.7552 13.051V13.0511M18.7552 13.051V13.0511M18.7552 13.0511V13.0512M18.7552 13.0511V13.0512M18.7552 13.0512V13.0513M18.7552 13.0512V13.0513M18.7552 13.0513V13.0514M18.7552 13.0513V13.0514M18.7552 13.0514V13.0515M18.7552 13.0514V13.0515M18.7552 13.0515V13.0517M18.7552 13.0515V13.0517M18.7552 13.0517V13.0518M18.7552 13.0517V13.0518M18.7552 13.0518V13.0519M18.7552 13.0518V13.0519M18.7552 13.0519V13.052M18.7552 13.0519V13.052M18.7552 13.052V13.0521M18.7552 13.052V13.0521M18.7552 13.0521V13.0522M18.7552 13.0521V13.0522M18.7552 13.0522V13.0523M18.7552 13.0522V13.0523M18.7552 13.0523V13.0524M18.7552 13.0523V13.0524M18.7552 13.0524V13.0525M18.7552 13.0524V13.0525M18.7552 13.0525V13.0526M18.7552 13.0525V13.0526M18.7552 13.0526V13.0527M18.7552 13.0526V13.0527M18.7552 13.0527V13.0528M18.7552 13.0527V13.0528M18.7552 13.0528V13.0529M18.7552 13.0528V13.0529M18.7552 13.0529V13.053M18.7552 13.0529V13.053M18.7552 13.053V13.0531M18.7552 13.053V13.0531M18.7552 13.0531V13.0533M18.7552 13.0531V13.0533M18.7552 13.0533V13.0534M18.7552 13.0533V13.0534M18.7552 13.0534V13.0535M18.7552 13.0534V13.0535M18.7552 13.0535V13.0536M18.7552 13.0535V13.0536M18.7552 13.0536V13.0537M18.7552 13.0536V13.0537M18.7552 13.0537V13.0538M18.7552 13.0537V13.0538M18.7552 13.0538V13.0539M18.7552 13.0538V13.0539M18.7552 13.0539V13.054M18.7552 13.0539V13.054M18.7552 13.054V13.0541M18.7552 13.054V13.0541M18.7552 13.0541V13.0542M18.7552 13.0541V13.0542M18.7552 13.0542V13.0543M18.7552 13.0542V13.0543M18.7552 13.0543V13.0544M18.7552 13.0543V13.0544M18.7552 13.0544V13.0545M18.7552 13.0544V13.0545M18.7552 13.0545V13.0546M18.7552 13.0545V13.0546M18.7552 13.0546V13.0547M18.7552 13.0546V13.0547M18.7552 13.0547V13.0549M18.7552 13.0547V13.0549M18.7552 13.0549V13.055M18.7552 13.0549V13.055M18.7552 13.055V13.0551M18.7552 13.055V13.0551M18.7552 13.0551V13.0552M18.7552 13.0551V13.0552M18.7552 13.0552V13.0553M18.7552 13.0552V13.0553M18.7552 13.0553V13.0554M18.7552 13.0553V13.0554M18.7552 13.0554V13.0555M18.7552 13.0554V13.0555M18.7552 13.0555V13.0556M18.7552 13.0555V13.0556M18.7552 13.0556V13.0557M18.7552 13.0556V13.0557M18.7552 13.0557V13.0558M18.7552 13.0557V13.0558M18.7552 13.0558V13.0559M18.7552 13.0558V13.0559M18.7552 13.0559V13.056M18.7552 13.0559V13.056M18.7552 13.056V13.0561M18.7552 13.056V13.0561M18.7552 13.0561V13.0562M18.7552 13.0561V13.0562M18.7552 13.0562V13.0564M18.7552 13.0562V13.0564M18.7552 13.0564V13.0565M18.7552 13.0564V13.0565M18.7552 13.0565V13.0566M18.7552 13.0565V13.0566M18.7552 13.0566V13.0567M18.7552 13.0566V13.0567M18.7552 13.0567V13.0568M18.7552 13.0567V13.0568M18.7552 13.0568V13.0569M18.7552 13.0568V13.0569M18.7552 13.0569V13.057M18.7552 13.0569V13.057M18.7552 13.057V13.0571M18.7552 13.057V13.0571M18.7552 13.0571V13.0572M18.7552 13.0571V13.0572M18.7552 13.0572V13.0573M18.7552 13.0572V13.0573M18.7552 13.0573V13.0574M18.7552 13.0573V13.0574M18.7552 13.0574V13.0575M18.7552 13.0574V13.0575M18.7552 13.0575V13.0576M18.7552 13.0575V13.0576M18.7552 13.0576V13.0577M18.7552 13.0576V13.0577M18.7552 13.0577V13.0578M18.7552 13.0577V13.0578M18.7552 13.0578V13.0579M18.7552 13.0578V13.0579M18.7552 13.0579V13.0581M18.7552 13.0579V13.0581M18.7552 13.0581V13.0582M18.7552 13.0581V13.0582M18.7552 13.0582V13.0583M18.7552 13.0582V13.0583M18.7552 13.0583V13.0584M18.7552 13.0583V13.0584M18.7552 13.0584V13.0585M18.7552 13.0584V13.0585M18.7552 13.0585V13.0586M18.7552 13.0585V13.0586M18.7552 13.0586V13.0587M18.7552 13.0586V13.0587M18.7552 13.0587V13.0588M18.7552 13.0587V13.0588M18.7552 13.0588V13.0589M18.7552 13.0588V13.0589M18.7552 13.0589V13.059M18.7552 13.0589V13.059M18.7552 13.059V13.0591M18.7552 13.059V13.0591M18.7552 13.0591V13.0592M18.7552 13.0591V13.0592M18.7552 13.0592V13.0593M18.7552 13.0592V13.0593M18.7552 13.0593V13.0594M18.7552 13.0593V13.0594M18.7552 13.0594V13.0595M18.7552 13.0594V13.0595M18.7552 13.0595V13.0597M18.7552 13.0595V13.0597M18.7552 13.0597V13.0598M18.7552 13.0597V13.0598M18.7552 13.0598V13.0599M18.7552 13.0598V13.0599M18.7552 13.0599V13.06M18.7552 13.0599V13.06M18.7552 13.06V13.0601M18.7552 13.06V13.0601M18.7552 13.0601V13.0602M18.7552 13.0601V13.0602M18.7552 13.0602V13.0603M18.7552 13.0602V13.0603M18.7552 13.0603V13.0604M18.7552 13.0603V13.0604M18.7552 13.0604V13.0605M18.7552 13.0604V13.0605M18.7552 13.0605V13.0606M18.7552 13.0605V13.0606M18.7552 13.0606V13.0607M18.7552 13.0606V13.0607M18.7552 13.0607V13.0608M18.7552 13.0607V13.0608M18.7552 13.0608V13.0609M18.7552 13.0608V13.0609M18.7552 13.0609V13.061M18.7552 13.0609V13.061M18.7552 13.061V13.0611M18.7552 13.061V13.0611M18.7552 13.0611V13.0613M18.7552 13.0611V13.0613M18.7552 13.0613V13.0614M18.7552 13.0613V13.0614M18.7552 13.0614V13.0615M18.7552 13.0614V13.0615M18.7552 13.0615V13.0616M18.7552 13.0615V13.0616M18.7552 13.0616V13.0617M18.7552 13.0616V13.0617M18.7552 13.0617V13.0618M18.7552 13.0617V13.0618M18.7552 13.0618V13.0619M18.7552 13.0618V13.0619M18.7552 13.0619V13.062M18.7552 13.0619V13.062M18.7552 13.062C18.7552 13.8128 18.7543 14.4111 18.6913 14.8803L18.7552 13.062ZM12.5886 9.17383C10.9318 9.17383 9.58855 10.5169 9.58855 12.1738C9.58855 13.8307 10.9318 15.1738 12.5886 15.1738C14.2454 15.1738 15.5886 13.8307 15.5886 12.1738C15.5886 10.5169 14.2454 9.17383 12.5886 9.17383Z" stroke="#FCBC10"/>
<path d="M4.58994 13.2678C4.59003 13.4386 4.59046 13.6094 4.59236 13.7775C4.3975 13.7436 4.20421 13.6892 4.01442 13.5987C3.49677 13.3521 3.07965 12.935 2.83299 12.4173C2.68949 12.1161 2.63658 11.8062 2.61258 11.4952M4.58994 13.2678C4.71036 13.2938 4.83786 13.31 4.97501 13.3206L4.97532 13.3207C5.01165 13.3235 5.04981 13.3259 5.08999 13.3281C5.08991 13.2549 5.08991 13.1813 5.08992 13.1075V13.1075M4.58994 13.2678C4.46292 13.2403 4.34378 13.2018 4.22952 13.1474L4.22951 13.1474C3.81537 12.95 3.48169 12.6164 3.28436 12.2022C3.17828 11.9796 3.13284 11.7385 3.1111 11.4568L2.61258 11.4952M4.58994 13.2678C4.58991 13.2149 4.58992 13.1621 4.58992 13.1093V13.1075H5.08992M5.08992 13.1075V11.243M5.08992 13.1075L4.58992 13.1074V11.243L5.08992 11.243M5.08992 11.243C5.08985 10.5398 5.08978 9.85656 5.16581 9.29107C5.2516 8.65292 5.46062 7.92383 6.06624 7.31822C6.67185 6.7126 7.40094 6.50358 8.03906 6.41779C8.60455 6.34176 9.2878 6.34183 9.99087 6.34191H9.99093M5.08992 11.243H4.58992L4.58992 11.2199C4.58983 10.5342 4.58975 9.82333 4.67027 9.22444C4.76344 8.53143 4.99841 7.67893 5.71268 6.96466C6.42695 6.25039 7.27944 6.01542 7.97244 5.92225C8.57128 5.84173 9.28205 5.84182 9.96765 5.8419L9.99093 5.84191V6.34191M9.99093 6.34191H15.1889M9.99093 6.34191L9.99098 5.84191H15.1889L15.1889 6.34191M15.1889 6.34191C15.2662 6.3419 15.3433 6.34189 15.42 6.34198C15.4148 6.16612 15.4021 6.02793 15.3761 5.91029L15.376 5.91021C15.371 5.8873 15.3655 5.86453 15.3597 5.84193M15.1889 6.34191V5.84191C15.2458 5.8419 15.3027 5.84189 15.3597 5.84193M15.3597 5.84193C15.467 5.84199 15.5743 5.8422 15.6809 5.84284C15.6809 5.84284 15.681 5.84284 15.681 5.84284C15.7453 5.84322 15.8094 5.84376 15.8731 5.84451C15.8703 5.83035 15.8674 5.81628 15.8643 5.80231C15.6543 4.85253 14.9125 4.11075 13.9628 3.90081M15.3597 5.84193C15.1722 5.11501 14.5918 4.55192 13.8549 4.38903L13.9628 3.90081M13.9628 3.90081C13.6934 3.84127 13.3905 3.84153 13.039 3.84184L6.70166 3.84188C5.96292 3.84184 5.3264 3.84181 4.81669 3.91034C4.27043 3.98378 3.7468 4.1494 3.32209 4.57412C2.89736 4.99884 2.73175 5.52247 2.6583 6.06872C2.58977 6.57844 2.5898 7.21497 2.58985 7.95369L2.58985 10.4285C2.58984 10.8428 2.58983 11.2003 2.61258 11.4952M13.9628 3.90081L13.8548 4.38902C13.6497 4.34368 13.4062 4.34152 13.0395 4.34184L13.039 4.34184L6.70167 4.34188H6.70163C5.95084 4.34184 5.35246 4.3428 4.88331 4.40588L4.88331 4.40588C4.39217 4.47191 3.99182 4.61149 3.67564 4.92767C3.35946 5.24385 3.21988 5.6442 3.15385 6.13535L3.15385 6.13535C3.09077 6.60449 3.0898 7.20288 3.08985 7.95366V7.95369L3.08985 10.4285V10.4285C3.08984 10.8494 3.09015 11.1853 3.1111 11.4568L2.61258 11.4952" stroke="#FCBC10"/>
</svg>
