<svg width="17" height="19" viewBox="0 0 17 19" fill="none" xmlns="http://www.w3.org/2000/svg">
<path d="M4.72638 0.477394C4.34023 0.477394 4.05061 0.771469 4.05149 1.16238L4.72638 0.477394ZM4.72638 0.477394C5.11254 0.476506 5.40215 0.769692 5.40303 1.16061L4.72638 0.477394ZM12.8959 13.8372C12.8956 13.148 12.3417 12.5835 11.6491 12.5835H11.6403V12.5834L11.6282 12.5837C10.9488 12.6001 10.4096 13.166 10.4216 13.8464C10.4255 14.5183 10.9612 15.0797 11.6407 15.0946L11.6407 15.0948L11.6528 15.0948C12.3461 15.0933 12.8972 14.525 12.8959 13.8372ZM12.8959 13.8372C12.8959 13.8374 12.8959 13.8376 12.8959 13.8378H12.3959L12.8959 13.8368C12.8959 13.8369 12.8959 13.837 12.8959 13.8372ZM4.40151 9.38604L4.41195 9.38601C5.07451 9.38453 5.62428 9.90624 5.64212 10.5791C5.66972 11.2602 5.14331 11.8298 4.47389 11.8603L4.40151 9.38604ZM4.40151 9.38604L4.39108 9.3865M4.40151 9.38604L4.39108 9.3865M4.39108 9.3865C3.71053 9.41646 3.19374 9.98455 3.19517 10.652L3.19519 10.6622M4.39108 9.3865L3.19519 10.6622M3.19519 10.6622L3.19563 10.6724M3.19519 10.6622L3.19563 10.6724M3.19563 10.6724C3.2244 11.3423 3.77858 11.8924 4.4738 11.8603L3.19563 10.6724ZM11.2922 0.968507L11.2922 0.968506C11.3479 0.968376 11.3891 0.988798 11.4167 1.0165C11.444 1.04383 11.4675 1.08765 11.4677 1.1526C11.4677 1.15268 11.4677 1.15276 11.4677 1.15285L11.4685 1.81872L11.4692 2.28045L11.9295 2.31653C13.0481 2.4042 13.9414 2.82472 14.5547 3.48136C15.1673 4.1372 15.536 5.06644 15.5372 6.23769V6.23782L15.5469 13.7274C15.5485 15.0156 15.1469 16.004 14.4713 16.6706C13.7946 17.3383 12.7903 17.7353 11.4877 17.7374L4.62568 17.7463C3.33626 17.7479 2.33071 17.3449 1.64842 16.6665C0.966329 15.9882 0.558161 14.9857 0.55654 13.6941L0.55654 13.6941L0.54688 6.2925L0.54688 6.29247C0.545269 5.10783 0.901552 4.17472 1.50023 3.51553C2.09903 2.8562 2.97794 2.42945 4.09807 2.32662L4.55297 2.28487L4.55237 1.82806L4.55149 1.16173L4.55149 1.16126C4.55133 1.09252 4.57529 1.04926 4.59999 1.02419C4.62439 0.999422 4.66406 0.977394 4.72638 0.977396L4.72753 0.977393C4.78986 0.97725 4.8294 0.999135 4.85379 1.02378C4.87853 1.04878 4.90281 1.0922 4.90303 1.16145C4.90303 1.16154 4.90303 1.16164 4.90303 1.16173L4.90391 1.78322L4.90461 2.2832L5.40459 2.28252L10.6177 2.27541L11.1177 2.27473L11.117 1.7747L11.1161 1.15279L11.1161 1.15238C11.116 1.08376 11.1398 1.04078 11.1645 1.0158C11.1889 0.991004 11.229 0.968652 11.2922 0.968507ZM4.41634 12.5844L4.4059 12.5844L4.45432 14.5592L4.47674 15.0587C4.47696 15.0587 4.47718 15.0587 4.4774 15.0587C5.14733 15.0283 5.67413 14.4589 5.6465 13.7775C5.62865 13.1043 5.07763 12.5829 4.41634 12.5844ZM8.03215 12.58L8.02116 12.58L8.01019 12.5805C7.3313 12.6119 6.8145 13.1775 6.8145 13.8449V13.8562L6.81501 13.8674C6.84518 14.5365 7.39775 15.0849 8.09212 15.0543L8.09373 15.0542C8.76115 15.0227 9.29 14.4557 9.26232 13.7722C9.24445 13.0994 8.69306 12.5785 8.03215 12.58ZM8.02864 9.35492L8.0182 9.35494L8.00777 9.3554C7.32799 9.38532 6.80955 9.95267 6.81099 10.6209L6.81101 10.6311L6.81145 10.6413C6.84026 11.3123 7.39518 11.8598 8.08861 11.8293L8.09022 11.8292C8.75857 11.7976 9.28557 11.2297 9.2588 10.548C9.24008 9.87606 8.69128 9.35343 8.02864 9.35492ZM11.6445 9.35936V9.35926L10.9268 10.6057H10.4268V10.6062C10.4268 10.6064 10.4268 10.6066 10.4268 10.6067L10.4268 10.6154H10.4267L10.4269 10.6262C10.4418 11.3176 11.0105 11.84 11.6846 11.8252L11.686 11.8251C12.3698 11.8082 12.8892 11.2281 12.8748 10.5576L12.8749 10.5576L12.8743 10.5448C12.844 9.90153 12.3205 9.35784 11.6445 9.35936ZM11.1188 3.143L11.1181 2.64293L10.6181 2.64362L5.40498 2.65072L4.90505 2.6514L4.90566 3.15133L4.90654 3.86947C4.90654 3.86953 4.90654 3.86959 4.90654 3.86965C4.9065 3.93317 4.88352 3.97823 4.85613 4.00628C4.82964 4.03341 4.78986 4.05446 4.73165 4.05446L4.7305 4.05447C4.67202 4.0546 4.63182 4.03349 4.60518 4.00637C4.57774 3.97844 4.555 3.93392 4.555 3.87125L4.555 3.87061L4.55412 3.18651L4.55341 2.63462L4.00427 2.68964C3.06196 2.78405 2.26427 3.1162 1.70753 3.75134C1.15282 4.38416 0.897003 5.24979 0.898423 6.29205L0.898426 6.29297L0.899309 6.56928L0.900904 7.06834L1.39998 7.06768L14.6872 7.04991L15.1865 7.04924V6.54991V6.23895H15.1866L15.1864 6.22908C15.166 5.19527 14.8945 4.3366 14.3302 3.71248C13.7636 3.08584 12.9613 2.76149 12.0135 2.67925L11.4696 2.63205L11.4703 3.17802L11.4712 3.86148C11.4712 3.86161 11.4712 3.86174 11.4712 3.86187C11.471 3.97503 11.39 4.04647 11.2963 4.04647L11.2951 4.04647C11.2371 4.0466 11.1969 4.02559 11.17 3.9982C11.1422 3.96994 11.1196 3.92527 11.1196 3.86325V3.86264L11.1188 3.143Z" stroke="#383838"/>
</svg>
