<svg width="18" height="17" viewBox="0 0 18 17" fill="none" xmlns="http://www.w3.org/2000/svg">
<path d="M2.21915 14.887H3.49365L11.3455 7.03522L10.071 5.76072L2.21915 13.6125V14.887ZM15.2372 5.7152L11.3682 1.8917L12.6427 0.617205C12.9917 0.268235 13.4205 0.09375 13.9291 0.09375C14.4376 0.09375 14.8661 0.268235 15.2145 0.617205L16.489 1.8917C16.838 2.24067 17.02 2.66186 17.0352 3.15528C17.0504 3.64869 16.8835 4.06958 16.5345 4.41794L15.2372 5.7152ZM13.9172 7.05797L4.26745 16.7078H0.398438V12.8387L10.0482 3.18896L13.9172 7.05797ZM10.7082 6.39797L10.071 5.76072L11.3455 7.03522L10.7082 6.39797Z" fill="white"/>
</svg>
