<svg width="21" height="19" viewBox="0 0 21 19" fill="none" xmlns="http://www.w3.org/2000/svg">
<path d="M10.75 19L9.3 17.7C7.61667 16.1834 6.225 14.875 5.125 13.775C4.025 12.675 3.15 11.6874 2.5 10.812C1.85 9.93736 1.396 9.13336 1.138 8.40002C0.88 7.66669 0.750667 6.91669 0.75 6.15002C0.75 4.58336 1.275 3.27502 2.325 2.22502C3.375 1.17502 4.68333 0.650024 6.25 0.650024C7.11667 0.650024 7.94167 0.833358 8.725 1.20002C9.50833 1.56669 10.1833 2.08336 10.75 2.75002C11.3167 2.08336 11.9917 1.56669 12.775 1.20002C13.5583 0.833358 14.3833 0.650024 15.25 0.650024C16.8167 0.650024 18.125 1.17502 19.175 2.22502C20.225 3.27502 20.75 4.58336 20.75 6.15002C20.75 6.91669 20.6207 7.66669 20.362 8.40002C20.1033 9.13336 19.6493 9.93736 19 10.812C18.35 11.6874 17.475 12.675 16.375 13.775C15.275 14.875 13.8833 16.1834 12.2 17.7L10.75 19Z" fill="white"/>
</svg>
