<svg width="13" height="18" viewBox="0 0 13 18" fill="none" xmlns="http://www.w3.org/2000/svg">
<path d="M9.19714 11.7955L9.19637 11.7964C8.36318 12.6814 7.43174 13.4642 6.42097 14.1292C6.38599 14.1483 6.34915 14.1632 6.31121 14.1736C6.29396 14.1691 6.27715 14.1622 6.26121 14.153C4.7139 13.1522 3.3558 11.8752 2.25234 10.3829L2.25199 10.3824C1.36065 9.17984 0.852419 7.72661 0.797038 6.21897L0.800979 6.00265C0.874187 4.06736 1.92182 2.30409 3.57518 1.34342C5.28905 0.347585 7.39427 0.364363 9.09266 1.38734C10.7769 2.43557 11.805 4.30755 11.7968 6.32612C11.7561 8.32923 10.648 10.2613 9.19714 11.7955ZM7.27013 3.96352C6.31826 3.55892 5.22211 3.78002 4.49496 4.51812C3.76939 5.25463 3.55345 6.36026 3.94282 7.32019C4.33252 8.28092 5.25584 8.91471 6.28788 8.91545C6.96423 8.91982 7.61237 8.6486 8.08861 8.16518C8.56457 7.68205 8.82958 7.02718 8.82767 6.34674C8.83053 5.31014 8.21987 4.36722 7.27013 3.96352Z" stroke="#FCBC10"/>
<path opacity="0.4" d="M9.70862 16.3939C9.57489 16.4334 9.41523 16.4726 9.22983 16.5097C8.49528 16.6566 7.45825 16.751 6.29743 16.751C5.13662 16.751 4.09959 16.6566 3.36503 16.5097C3.17964 16.4726 3.01998 16.4334 2.88624 16.3939C3.01998 16.3543 3.17964 16.3152 3.36503 16.2781C4.09959 16.1312 5.13662 16.0367 6.29743 16.0367C7.45825 16.0367 8.49528 16.1312 9.22983 16.2781C9.41523 16.3152 9.57489 16.3543 9.70862 16.3939Z" stroke="#FCBC10"/>
</svg>
