<svg width="12" height="17" viewBox="0 0 12 17" fill="none" xmlns="http://www.w3.org/2000/svg">
<path d="M3.26287 1.68889C5.0108 0.673266 7.15929 0.691018 8.89081 1.73539C10.6053 2.80103 11.6473 4.70289 11.6377 6.74875C11.5977 8.78119 10.4804 10.6917 9.08369 12.1686C8.27756 13.0249 7.37576 13.782 6.39672 14.4246C6.29589 14.4829 6.18544 14.5219 6.07083 14.5398C5.96051 14.5351 5.85309 14.5025 5.75823 14.4449C4.26353 13.4794 2.95223 12.247 1.8874 10.8069C0.996383 9.60476 0.490169 8.15243 0.4375 6.64713L0.441489 6.42814C0.51424 4.46326 1.57736 2.66824 3.26287 1.68889ZM6.76347 4.96737C6.05289 4.66533 5.23365 4.82943 4.68826 5.38304C4.14286 5.93665 3.9789 6.77058 4.27292 7.49544C4.56695 8.2203 5.26096 8.69312 6.03092 8.69312C6.53533 8.69674 7.02021 8.4947 7.37752 8.13201C7.73482 7.76932 7.93487 7.27612 7.93309 6.7623C7.93577 5.978 7.47404 5.26941 6.76347 4.96737Z" fill="black"/>
<path opacity="0.4" d="M9.09892 16.1399C9.00142 16.1655 8.89164 16.1909 8.7696 16.2153C8.08673 16.3518 7.12111 16.4399 6.03916 16.4399C4.95721 16.4399 3.99159 16.3518 3.30872 16.2153C3.18668 16.1909 3.0769 16.1655 2.97939 16.1399C3.0769 16.1142 3.18668 16.0889 3.30872 16.0645C3.99159 15.9279 4.95721 15.8398 6.03916 15.8398C7.12111 15.8398 8.08673 15.9279 8.7696 16.0645C8.89164 16.0889 9.00142 16.1142 9.09892 16.1399Z" stroke="black"/>
</svg>
