<svg width="21" height="18" viewBox="0 0 21 18" fill="none" xmlns="http://www.w3.org/2000/svg">
<path fill-rule="evenodd" clip-rule="evenodd" d="M3.4375 7.34065V10.6594C3.4375 12.2247 3.4375 13.0066 4.03917 13.4931C4.585 13.9346 5.43417 13.9748 7.03583 13.9789C7.03146 13.955 7.0273 13.9312 7.02333 13.9073C6.9275 13.3314 6.9275 12.5999 6.9275 11.6918V11.6556C6.9275 11.3806 7.20333 11.1575 7.54417 11.1575C7.88417 11.1575 8.16 11.3806 8.16 11.6556C8.16 12.6081 8.16083 13.2727 8.24417 13.7742C8.32583 14.2614 8.47333 14.52 8.70083 14.7035C8.92833 14.8877 9.2475 15.0072 9.85 15.072C10.47 15.1402 11.2925 15.1409 12.4717 15.1409H13.2925C14.4717 15.1409 15.2933 15.1395 15.9142 15.0727C16.5167 15.0072 16.8358 14.8871 17.0625 14.7035C17.29 14.5193 17.4383 14.2614 17.5192 13.7742C17.6025 13.2734 17.6042 12.6081 17.6042 11.6556V6.34446C17.6042 5.39127 17.6025 4.72737 17.5192 4.22519C17.4383 3.7387 17.29 3.4801 17.0633 3.29724C16.8358 3.11301 16.5167 2.99293 15.9133 2.92742C15.2933 2.86056 14.4717 2.85919 13.2925 2.85919H12.4717C11.2925 2.85919 10.47 2.86056 9.85 2.92742C9.2475 2.99293 8.92833 3.11301 8.70083 3.29656C8.47333 3.48078 8.32583 3.7387 8.24417 4.22587C8.16083 4.72669 8.16 5.39127 8.16 6.34446C8.16 6.61944 7.88417 6.84256 7.54333 6.84256C7.46294 6.84301 7.38322 6.83047 7.30875 6.80568C7.23427 6.78088 7.1665 6.7443 7.1093 6.69804C7.05211 6.65178 7.00661 6.59674 6.97541 6.53607C6.94422 6.4754 6.92794 6.41029 6.9275 6.34446V6.3083C6.9275 5.40082 6.9275 4.6687 7.02333 4.09282L7.03583 4.02118C5.43417 4.02527 4.58583 4.06553 4.03917 4.50699C3.4375 4.99348 3.4375 5.77609 3.4375 7.34065ZM11.675 11.0115L13.7283 9.35212C13.7855 9.30619 13.8309 9.25141 13.8619 9.19095C13.8928 9.1305 13.9088 9.0656 13.9088 9.00004C13.9088 8.93448 13.8928 8.86958 13.8619 8.80913C13.8309 8.74867 13.7855 8.69389 13.7283 8.64796L11.675 6.98857C11.5588 6.89518 11.4024 6.84287 11.2396 6.84287C11.0767 6.84287 10.9204 6.89518 10.8042 6.98857C10.747 7.03449 10.7016 7.08928 10.6706 7.14973C10.6397 7.21018 10.6237 7.27509 10.6237 7.34065C10.6237 7.40621 10.6397 7.47111 10.6706 7.53156C10.7016 7.59201 10.747 7.6468 10.8042 7.69272L11.8058 8.50195H5.90167C5.8212 8.50141 5.7414 8.51388 5.66683 8.53863C5.59225 8.56339 5.52438 8.59995 5.4671 8.64622C5.40981 8.69249 5.36424 8.74756 5.33299 8.80827C5.30174 8.86899 5.28544 8.93416 5.285 9.00004C5.285 9.27501 5.56083 9.49813 5.90167 9.49813H11.8058L10.8042 10.3074C10.747 10.3533 10.7016 10.4081 10.6706 10.4685C10.6397 10.529 10.6237 10.5939 10.6237 10.6594C10.6237 10.725 10.6397 10.7899 10.6706 10.8503C10.7016 10.9108 10.747 10.9656 10.8042 11.0115C10.9204 11.1049 11.0767 11.1572 11.2396 11.1572C11.4024 11.1572 11.5588 11.1049 11.675 11.0115Z" fill="white"/>
</svg>
