<svg width="21" height="19" viewBox="0 0 21 19" fill="none" xmlns="http://www.w3.org/2000/svg">
<path d="M10.1914 18.4519L8.74141 17.1519C7.05807 15.6353 5.66641 14.3269 4.56641 13.2269C3.46641 12.1269 2.59141 11.1393 1.94141 10.2639C1.29141 9.38926 0.837406 8.58526 0.579406 7.85193C0.321406 7.1186 0.192073 6.3686 0.191406 5.60193C0.191406 4.03526 0.716406 2.72693 1.76641 1.67693C2.81641 0.626929 4.12474 0.101929 5.69141 0.101929C6.55807 0.101929 7.38307 0.285262 8.16641 0.651929C8.94974 1.0186 9.62474 1.53526 10.1914 2.20193C10.7581 1.53526 11.4331 1.0186 12.2164 0.651929C12.9997 0.285262 13.8247 0.101929 14.6914 0.101929C16.2581 0.101929 17.5664 0.626929 18.6164 1.67693C19.6664 2.72693 20.1914 4.03526 20.1914 5.60193C20.1914 6.3686 20.0621 7.1186 19.8034 7.85193C19.5447 8.58526 19.0907 9.38926 18.4414 10.2639C17.7914 11.1393 16.9164 12.1269 15.8164 13.2269C14.7164 14.3269 13.3247 15.6353 11.6414 17.1519L10.1914 18.4519Z" fill="#F4C444"/>
</svg>
