<svg width="19" height="19" viewBox="0 0 19 19" fill="none" xmlns="http://www.w3.org/2000/svg">
<path d="M16.65 17.8L11.05 12.2C10.55 12.6 9.975 12.9167 9.325 13.15C8.675 13.3833 7.98333 13.5 7.25 13.5C5.43333 13.5 3.896 12.8707 2.638 11.612C1.38 10.3533 0.750667 8.816 0.75 7C0.75 5.18333 1.37933 3.646 2.638 2.388C3.89667 1.13 5.434 0.500667 7.25 0.5C9.06667 0.5 10.604 1.12933 11.862 2.388C13.12 3.64667 13.7493 5.184 13.75 7C13.75 7.73333 13.6333 8.425 13.4 9.075C13.1667 9.725 12.85 10.3 12.45 10.8L18.075 16.425C18.2583 16.6083 18.35 16.8333 18.35 17.1C18.35 17.3667 18.25 17.6 18.05 17.8C17.8667 17.9833 17.6333 18.075 17.35 18.075C17.0667 18.075 16.8333 17.9833 16.65 17.8ZM7.25 11.5C8.5 11.5 9.56267 11.0623 10.438 10.187C11.3133 9.31167 11.7507 8.24933 11.75 7C11.75 5.75 11.3123 4.68733 10.437 3.812C9.56167 2.93667 8.49933 2.49933 7.25 2.5C6 2.5 4.93733 2.93767 4.062 3.813C3.18667 4.68833 2.74933 5.75067 2.75 7C2.75 8.25 3.18767 9.31267 4.063 10.188C4.93833 11.0633 6.00067 11.5007 7.25 11.5Z" fill="white"/>
</svg>
