<svg width="18" height="17" viewBox="0 0 18 17" fill="none" xmlns="http://www.w3.org/2000/svg">
<path d="M14.0243 10.8204C13.7981 11.0318 13.6941 11.3375 13.7456 11.6372L14.5223 15.7801C14.5878 16.1313 14.4341 16.4866 14.1292 16.6895C13.8304 16.9 13.4329 16.9253 13.107 16.7569L9.23773 14.8118C9.10319 14.7427 8.9538 14.7057 8.80092 14.7015H8.56416C8.48204 14.7132 8.40167 14.7385 8.32829 14.7772L4.45812 16.7316C4.2668 16.8243 4.05014 16.8571 3.83785 16.8243C3.32066 16.73 2.97558 16.255 3.06032 15.754L3.83785 11.6111C3.88939 11.3088 3.78543 11.0015 3.55916 10.7868L0.404502 7.8396C0.140667 7.59288 0.0489362 7.22238 0.169497 6.88808C0.286562 6.55463 0.585342 6.31128 0.94615 6.25654L5.28807 5.64943C5.6183 5.61659 5.90834 5.42292 6.05686 5.13662L7.9701 1.35582C8.01553 1.27162 8.07406 1.19415 8.14482 1.12847L8.22345 1.06952C8.26451 1.02574 8.31169 0.989529 8.3641 0.960057L8.45933 0.926375L8.60785 0.867432H8.97564C9.30413 0.900272 9.5933 1.08973 9.74443 1.37266L11.683 5.13662C11.8228 5.41197 12.0945 5.60311 12.4081 5.64943L16.75 6.25654C17.117 6.30707 17.4236 6.55126 17.545 6.88808C17.6595 7.22574 17.5608 7.59624 17.2917 7.8396L14.0243 10.8204Z" fill="#FFC731"/>
</svg>
