<svg width="15" height="14" viewBox="0 0 15 14" fill="none" xmlns="http://www.w3.org/2000/svg">
<path fill-rule="evenodd" clip-rule="evenodd" d="M0.945489 1.70589C1.0784 0.724245 1.9446 0.104492 2.84492 0.104492H4.55722C5.41808 0.104492 6.18236 0.655352 6.45456 1.47204L7.15423 3.57091C7.4549 4.47304 6.92396 5.44023 6.00144 5.67089C5.77587 5.72729 5.69806 6.00816 5.86248 6.17263L8.11676 8.42689C8.28123 8.59136 8.5621 8.51349 8.6185 8.28796C8.84916 7.36543 9.81636 6.83449 10.7185 7.13516L12.8174 7.83483C13.634 8.10703 14.1849 8.87129 14.1849 9.73216V11.4445C14.1849 12.3448 13.5652 13.211 12.5835 13.3439C12.1258 13.4059 11.6589 13.4378 11.1849 13.4378C5.47796 13.4378 0.851562 8.81143 0.851562 3.10449C0.851562 2.63048 0.883522 2.16358 0.945489 1.70589Z" fill="black"/>
</svg>
