<svg width="13" height="13" viewBox="0 0 13 13" fill="none" xmlns="http://www.w3.org/2000/svg">
<path d="M5.5989 7.35725L5.59889 7.35727L5.60259 7.35948L7.95459 8.76348L7.95458 8.7635L7.95894 8.76604C8.09708 8.84663 8.26111 8.90015 8.44488 8.90015C8.76439 8.90015 9.08163 8.73494 9.25919 8.43278C9.52552 7.98571 9.381 7.40693 8.9336 7.13351L8.93362 7.13349L8.9287 7.13056L7.03688 6.00396V3.51615C7.03688 2.98368 6.60466 2.56615 6.08687 2.56615C5.56909 2.56615 5.13688 2.98368 5.13688 3.51615V6.54615C5.13688 6.88666 5.3206 7.18785 5.5989 7.35725ZM6.29688 0.608154C9.33841 0.608154 11.7969 3.07197 11.7969 6.10815C11.7969 9.15001 9.33873 11.6082 6.29688 11.6082C3.26069 11.6082 0.796875 9.14969 0.796875 6.10815C0.796875 3.0723 3.26102 0.608154 6.29688 0.608154Z" stroke="#FCBC10"/>
</svg>
