<svg width="17" height="17" viewBox="0 0 17 17" fill="none" xmlns="http://www.w3.org/2000/svg">
<path d="M8.4375 0.939453C12.8615 0.939453 16.4375 4.52345 16.4375 8.93945C16.4375 13.3635 12.8615 16.9395 8.4375 16.9395C4.0215 16.9395 0.4375 13.3635 0.4375 8.93945C0.4375 4.52345 4.0215 0.939453 8.4375 0.939453ZM8.1575 4.88345C7.8295 4.88345 7.5575 5.14745 7.5575 5.48345V9.52345C7.5575 9.73145 7.6695 9.92345 7.8535 10.0355L10.9895 11.9075C11.0855 11.9635 11.1895 11.9955 11.3015 11.9955C11.5015 11.9955 11.7015 11.8915 11.8135 11.6995C11.9815 11.4195 11.8935 11.0515 11.6055 10.8755L8.7575 9.17945V5.48345C8.7575 5.14745 8.4855 4.88345 8.1575 4.88345Z" fill="black"/>
</svg>
