<svg width="25" height="25" viewBox="0 0 25 25" fill="none" xmlns="http://www.w3.org/2000/svg">
<g clip-path="url(#clip0_1413_2235)">
<path d="M1.338 12.4682C1.33744 14.4847 1.86433 16.4536 2.86619 18.1891L1.24219 24.1186L7.31028 22.5275C8.98863 23.4412 10.8691 23.9199 12.78 23.92H12.7851C19.0934 23.92 24.2286 18.7867 24.2313 12.4773C24.2325 9.41986 23.0429 6.54488 20.8816 4.38191C18.7207 2.21912 15.8467 1.0274 12.7846 1.026C6.47549 1.026 1.3407 6.15902 1.33809 12.4682" fill="url(#paint0_linear_1413_2235)"/>
<path d="M0.92766 12.4645C0.927009 14.5535 1.47278 16.5928 2.51036 18.3904L0.828125 24.5325L7.1138 22.8844C8.84571 23.8287 10.7957 24.3265 12.7798 24.3273H12.785C19.3197 24.3273 24.6393 19.0093 24.6421 12.474C24.6432 9.3067 23.4108 6.32837 21.1723 4.08791C18.9335 1.84772 15.9568 0.613119 12.785 0.611816C6.24915 0.611816 0.930265 5.92903 0.92766 12.4645ZM4.67092 18.0808L4.43622 17.7083C3.44961 16.1395 2.92887 14.3267 2.92961 12.4652C2.93175 7.03312 7.35259 2.61368 12.7887 2.61368C15.4212 2.61479 17.8953 3.64103 19.7561 5.50298C21.6169 7.36512 22.6408 9.84047 22.6401 12.4732C22.6377 17.9053 18.2168 22.3253 12.785 22.3253H12.7811C11.0124 22.3244 9.2778 21.8494 7.76506 20.9518L7.40506 20.7383L3.67501 21.7163L4.67092 18.0807V18.0808Z" fill="url(#paint1_linear_1413_2235)"/>
<path d="M9.82311 7.50928C9.60116 7.01598 9.36758 7.00602 9.15651 6.99737C8.98367 6.98993 8.78609 6.99049 8.5887 6.99049C8.39111 6.99049 8.07009 7.06481 7.79874 7.36109C7.52711 7.65765 6.76172 8.3743 6.76172 9.83188C6.76172 11.2896 7.82339 12.6982 7.97139 12.8961C8.11958 13.0936 10.021 16.1804 13.0323 17.368C15.535 18.3549 16.0443 18.1586 16.5875 18.1091C17.1307 18.0598 18.3404 17.3926 18.5872 16.7008C18.8342 16.0091 18.8342 15.4162 18.7601 15.2923C18.6861 15.1688 18.4885 15.0947 18.1922 14.9466C17.8959 14.7984 16.4393 14.0817 16.1678 13.9828C15.8961 13.884 15.6986 13.8347 15.5011 14.1313C15.3035 14.4275 14.7361 15.0947 14.5632 15.2923C14.3905 15.4903 14.2175 15.515 13.9213 15.3668C13.6249 15.2181 12.6707 14.9057 11.5387 13.8964C10.658 13.1111 10.0634 12.1414 9.89056 11.8447C9.71772 11.5485 9.87204 11.388 10.0206 11.2403C10.1537 11.1076 10.317 10.8944 10.4653 10.7215C10.613 10.5484 10.6623 10.425 10.7611 10.2274C10.86 10.0297 10.8105 9.85663 10.7365 9.70844C10.6623 9.56026 10.0866 8.09505 9.82311 7.50928Z" fill="white"/>
</g>
<defs>
<linearGradient id="paint0_linear_1413_2235" x1="12.7367" y1="24.1186" x2="12.7367" y2="1.026" gradientUnits="userSpaceOnUse">
<stop stop-color="#1FAF38"/>
<stop offset="1" stop-color="#60D669"/>
</linearGradient>
<linearGradient id="paint1_linear_1413_2235" x1="12.7351" y1="24.5325" x2="12.7351" y2="0.611816" gradientUnits="userSpaceOnUse">
<stop stop-color="#F9F9F9"/>
<stop offset="1" stop-color="white"/>
</linearGradient>
<clipPath id="clip0_1413_2235">
<rect width="23.814" height="24" fill="white" transform="translate(0.828125 0.611816)"/>
</clipPath>
</defs>
</svg>
